M48
; DRILL file {KiCad 6.0.11-2627ca5db0~126~ubuntu22.04.1} date сб, 08-кві-2023 18:09:59 +0300
; FORMAT={-:-/ absolute / inch / decimal}
; #@! TF.CreationDate,2023-04-08T18:09:59+03:00
; #@! TF.GenerationSoftware,Kicad,Pcbnew,6.0.11-2627ca5db0~126~ubuntu22.04.1
; #@! TF.FileFunction,Plated,1,2,PTH
FMAT,2
INCH
; #@! TA.AperFunction,Plated,PTH,ComponentDrill
T1C0.0315
; #@! TA.AperFunction,Plated,PTH,ComponentDrill
T2C0.0394
%
G90
G05
T1
X-3.1368Y0.7265
X-3.1368Y0.6477
X-3.058Y0.7265
X-3.058Y0.6477
X-2.9793Y0.7265
X-2.9793Y0.6477
X-2.9006Y0.7265
X-2.9006Y0.6477
X-2.8218Y0.7265
X-2.8218Y0.6477
X-2.7431Y0.7265
X-2.7431Y0.6477
X-2.6643Y0.7265
X-2.6643Y0.6477
X-2.5856Y0.7265
X-2.5856Y0.6477
X-2.5069Y0.7265
X-2.5069Y0.6477
X-2.4281Y0.7265
X-2.4281Y0.6477
X-2.3494Y0.7265
X-2.3494Y0.6477
X-2.2706Y0.7265
X-2.2706Y0.6477
X-2.1919Y0.7265
X-2.1919Y0.6477
X-2.1131Y0.7265
X-2.1131Y0.6477
X-2.0344Y0.7265
X-2.0344Y0.6477
X-1.9557Y0.7265
X-1.9557Y0.6477
X-1.8769Y0.7265
X-1.8769Y0.6477
X-1.7982Y0.7265
X-1.7982Y0.6477
X-1.7194Y0.7265
X-1.7194Y0.6477
X-1.6407Y0.7265
X-1.6407Y0.6477
X-0.8533Y2.38
X-0.8533Y2.3013
X-0.8533Y2.2225
X-0.8533Y2.1438
X-0.8533Y2.065
X-0.8533Y1.9863
X-0.8533Y1.9076
X-0.8533Y1.8288
X-0.8533Y1.7501
X-0.8533Y1.6713
X-0.8533Y1.5926
X-0.8533Y1.5139
X-0.8533Y1.4351
X-0.8533Y1.3564
X-0.8533Y1.2776
X-0.8533Y1.1989
X-0.8533Y1.1202
X-0.8533Y1.0414
X-0.8533Y0.9627
X-0.8533Y0.8839
X-0.7746Y2.38
X-0.7746Y2.3013
X-0.7746Y2.2225
X-0.7746Y2.1438
X-0.7746Y2.065
X-0.7746Y1.9863
X-0.7746Y1.9076
X-0.7746Y1.8288
X-0.7746Y1.7501
X-0.7746Y1.6713
X-0.7746Y1.5926
X-0.7746Y1.5139
X-0.7746Y1.4351
X-0.7746Y1.3564
X-0.7746Y1.2776
X-0.7746Y1.1989
X-0.7746Y1.1202
X-0.7746Y1.0414
X-0.7746Y0.9627
X-0.7746Y0.8839
T2
X-2.601Y3.5994
X-2.601Y3.4994
X-2.601Y3.3994
X-2.301Y3.5994
X-2.301Y3.4994
X-2.301Y3.3994
T0
M30
