%TF.GenerationSoftware,KiCad,Pcbnew,6.0.11-2627ca5db0~126~ubuntu22.04.1*%
%TF.CreationDate,2023-04-08T18:09:56+03:00*%
%TF.ProjectId,wt32-sc01_kicad,77743332-2d73-4633-9031-5f6b69636164,rev?*%
%TF.SameCoordinates,PXb0d48e0PY791ddc0*%
%TF.FileFunction,Copper,L1,Top*%
%TF.FilePolarity,Positive*%
%FSLAX46Y46*%
G04 Gerber Fmt 4.6, Leading zero omitted, Abs format (unit mm)*
G04 Created by KiCad (PCBNEW 6.0.11-2627ca5db0~126~ubuntu22.04.1) date 2023-04-08 18:09:56*
%MOMM*%
%LPD*%
G01*
G04 APERTURE LIST*
%TA.AperFunction,ComponentPad*%
%ADD10R,1.700000X1.700000*%
%TD*%
%TA.AperFunction,ComponentPad*%
%ADD11O,1.700000X1.700000*%
%TD*%
%TA.AperFunction,ComponentPad*%
%ADD12C,1.700000*%
%TD*%
%TA.AperFunction,ComponentPad*%
%ADD13O,1.350000X1.350000*%
%TD*%
%TA.AperFunction,ComponentPad*%
%ADD14R,1.350000X1.350000*%
%TD*%
%TA.AperFunction,Conductor*%
%ADD15C,0.600000*%
%TD*%
G04 APERTURE END LIST*
D10*
%TO.P,U2,1,LR*%
%TO.N,GND*%
X-58445000Y91425000D03*
D11*
%TO.P,U2,2,WS*%
%TO.N,Net-(U1-Pad26)*%
X-58445000Y88885000D03*
%TO.P,U2,3,SCK*%
%TO.N,Net-(U1-Pad12)*%
X-58445000Y86345000D03*
D12*
%TO.P,U2,4,GND*%
%TO.N,GND*%
X-66065000Y91425000D03*
D11*
%TO.P,U2,5,VDD*%
%TO.N,+3.3V*%
X-66065000Y88885000D03*
%TO.P,U2,6,SD*%
%TO.N,Net-(U1-Pad10)*%
X-66065000Y86345000D03*
%TD*%
D13*
%TO.P,U1,40,+5V*%
%TO.N,+5V*%
X-41674000Y18452000D03*
X-21674000Y60452000D03*
%TO.P,U1,39,+5V*%
X-19674000Y60452000D03*
X-41674000Y16452000D03*
%TO.P,U1,38,+3V3*%
%TO.N,+3.3V*%
X-21674000Y58452000D03*
X-43674000Y18452000D03*
%TO.P,U1,37,+3V3*%
X-43674000Y16452000D03*
X-19674000Y58452000D03*
%TO.P,U1,36,GND*%
%TO.N,GND*%
X-21674000Y56452000D03*
X-45674000Y18452000D03*
%TO.P,U1,35,GND*%
X-19674000Y56452000D03*
X-45674000Y16452000D03*
%TO.P,U1,34,GND*%
X-47674000Y18452000D03*
X-21674000Y54452000D03*
%TO.P,U1,33,GND*%
X-19674000Y54452000D03*
X-47674000Y16452000D03*
%TO.P,U1,32,IO35*%
%TO.N,unconnected-(U1-Pad32)*%
X-21674000Y52452000D03*
X-49674000Y18452000D03*
%TO.P,U1,31,IO33*%
%TO.N,unconnected-(U1-Pad31)*%
X-49674000Y16452000D03*
X-19674000Y52452000D03*
%TO.P,U1,30,IO26*%
%TO.N,unconnected-(U1-Pad30)*%
X-21674000Y50452000D03*
X-51674000Y18452000D03*
%TO.P,U1,29,IO32*%
%TO.N,unconnected-(U1-Pad29)*%
X-51674000Y16452000D03*
X-19674000Y50452000D03*
%TO.P,U1,28,IO25*%
%TO.N,unconnected-(U1-Pad28)*%
X-53674000Y18452000D03*
X-21674000Y48452000D03*
%TO.P,U1,27,IO27*%
%TO.N,unconnected-(U1-Pad27)*%
X-19674000Y48452000D03*
X-53674000Y16452000D03*
%TO.P,U1,26,IO5-HI*%
%TO.N,Net-(U1-Pad26)*%
X-55674000Y18452000D03*
X-21674000Y46452000D03*
%TO.P,U1,25,IO14_LSCL*%
%TO.N,unconnected-(U1-Pad25)*%
X-19674000Y46452000D03*
X-55674000Y16452000D03*
%TO.P,U1,24,IO0-LO*%
%TO.N,unconnected-(U1-Pad24)*%
X-21674000Y44452000D03*
X-57674000Y18452000D03*
%TO.P,U1,23,IO12-LO*%
%TO.N,unconnected-(U1-Pad23)*%
X-57674000Y16452000D03*
X-19674000Y44452000D03*
%TO.P,U1,22,IO23_LBCLK*%
%TO.N,unconnected-(U1-Pad22)*%
X-21674000Y42452000D03*
X-59674000Y18452000D03*
%TO.P,U1,21,TXD0*%
%TO.N,unconnected-(U1-Pad21)*%
X-59674000Y16452000D03*
X-19674000Y42452000D03*
%TO.P,U1,20,IO22_LRST*%
%TO.N,unconnected-(U1-Pad20)*%
X-21674000Y40452000D03*
X-61674000Y18452000D03*
%TO.P,U1,19,IO21_LDC*%
%TO.N,unconnected-(U1-Pad19)*%
X-61674000Y16452000D03*
X-19674000Y40452000D03*
%TO.P,U1,18,EN*%
%TO.N,unconnected-(U1-Pad18)*%
X-21674000Y38452000D03*
X-63674000Y18452000D03*
%TO.P,U1,17,IO18_I2C_SDA*%
%TO.N,unconnected-(U1-Pad17)*%
X-19674000Y38452000D03*
X-63674000Y16452000D03*
%TO.P,U1,16,IO13_LMOSI*%
%TO.N,unconnected-(U1-Pad16)*%
X-65674000Y18452000D03*
X-21674000Y36452000D03*
%TO.P,U1,15,IO19_I2C_SCL*%
%TO.N,unconnected-(U1-Pad15)*%
X-65674000Y16452000D03*
X-19674000Y36452000D03*
%TO.P,U1,14,IO15_LCS*%
%TO.N,unconnected-(U1-Pad14)*%
X-67674000Y18452000D03*
X-21674000Y34452000D03*
%TO.P,U1,13,IO34*%
%TO.N,unconnected-(U1-Pad13)*%
X-67674000Y16452000D03*
X-19674000Y34452000D03*
%TO.P,U1,12,IO2-LO*%
%TO.N,Net-(U1-Pad12)*%
X-69674000Y18452000D03*
X-21674000Y32452000D03*
%TO.P,U1,11,VN*%
%TO.N,unconnected-(U1-Pad11)*%
X-69674000Y16452000D03*
X-19674000Y32452000D03*
%TO.P,U1,10,IO4*%
%TO.N,Net-(U1-Pad10)*%
X-71674000Y18452000D03*
X-21674000Y30452000D03*
%TO.P,U1,9,VP*%
%TO.N,unconnected-(U1-Pad9)*%
X-71674000Y16452000D03*
X-19674000Y30452000D03*
%TO.P,U1,8,GND*%
%TO.N,GND*%
X-21674000Y28452000D03*
X-73674000Y18452000D03*
%TO.P,U1,7,GND*%
X-19674000Y28452000D03*
X-73674000Y16452000D03*
%TO.P,U1,6,GND*%
X-75674000Y18452000D03*
X-21674000Y26452000D03*
%TO.P,U1,5,GND*%
X-75674000Y16452000D03*
X-19674000Y26452000D03*
%TO.P,U1,4,+3V3*%
%TO.N,+3.3V*%
X-77674000Y18452000D03*
X-21674000Y24452000D03*
%TO.P,U1,3,+3V3*%
X-19674000Y24452000D03*
X-77674000Y16452000D03*
%TO.P,U1,2,+5V*%
%TO.N,+5V*%
X-21674000Y22452000D03*
X-79674000Y18452000D03*
D14*
%TO.P,U1,1,+5V*%
X-79674000Y16452000D03*
X-19674000Y22452000D03*
%TD*%
D15*
%TO.N,+3.3V*%
X-66065000Y88885000D02*
X-72405000Y88885000D01*
X-72405000Y88885000D02*
X-77674000Y83616000D01*
X-77674000Y83616000D02*
X-77674000Y18452000D01*
%TO.N,Net-(U1-Pad10)*%
X-66065000Y86345000D02*
X-66065000Y35535000D01*
X-66065000Y35535000D02*
X-71674000Y29926000D01*
X-71674000Y29926000D02*
X-71674000Y18452000D01*
%TO.N,Net-(U1-Pad12)*%
X-58445000Y86345000D02*
X-58445000Y85115000D01*
X-58445000Y85115000D02*
X-45720000Y72390000D01*
X-45720000Y72390000D02*
X-45720000Y41910000D01*
X-45720000Y41910000D02*
X-36262000Y32452000D01*
X-36262000Y32452000D02*
X-21674000Y32452000D01*
%TO.N,Net-(U1-Pad26)*%
X-58445000Y88885000D02*
X-52055000Y88885000D01*
X-52055000Y88885000D02*
X-38100000Y74930000D01*
X-38100000Y74930000D02*
X-38100000Y52070000D01*
X-38100000Y52070000D02*
X-32482000Y46452000D01*
X-32482000Y46452000D02*
X-21674000Y46452000D01*
%TD*%
%TA.AperFunction,Conductor*%
%TO.N,GND*%
G36*
X-16567879Y96499998D02*
G01*
X-16521386Y96446342D01*
X-16510000Y96394000D01*
X-16510000Y12826000D01*
X-16530002Y12757879D01*
X-16583658Y12711386D01*
X-16636000Y12700000D01*
X-84964000Y12700000D01*
X-85032121Y12720002D01*
X-85078614Y12773658D01*
X-85090000Y12826000D01*
X-85090000Y18483113D01*
X-80862163Y18483113D01*
X-80847937Y18266067D01*
X-80846516Y18260471D01*
X-80846515Y18260466D01*
X-80795816Y18060842D01*
X-80794395Y18055247D01*
X-80703332Y17857715D01*
X-80607370Y17721932D01*
X-80584390Y17654760D01*
X-80601374Y17585825D01*
X-80634703Y17548388D01*
X-80645549Y17540259D01*
X-80712261Y17490261D01*
X-80799615Y17373705D01*
X-80850745Y17237316D01*
X-80857500Y17175134D01*
X-80857500Y15728866D01*
X-80850745Y15666684D01*
X-80799615Y15530295D01*
X-80712261Y15413739D01*
X-80595705Y15326385D01*
X-80459316Y15275255D01*
X-80397134Y15268500D01*
X-78950866Y15268500D01*
X-78888684Y15275255D01*
X-78752295Y15326385D01*
X-78635739Y15413739D01*
X-78578786Y15489731D01*
X-78521927Y15532246D01*
X-78451108Y15537272D01*
X-78407958Y15518931D01*
X-78334812Y15470056D01*
X-78241137Y15407464D01*
X-78235829Y15405183D01*
X-78235828Y15405183D01*
X-78046591Y15323881D01*
X-78046588Y15323880D01*
X-78041288Y15321603D01*
X-78035658Y15320329D01*
X-77928092Y15295989D01*
X-77829140Y15273598D01*
X-77823369Y15273371D01*
X-77823367Y15273371D01*
X-77750380Y15270504D01*
X-77611795Y15265059D01*
X-77396534Y15296270D01*
X-77391070Y15298125D01*
X-77391065Y15298126D01*
X-77196037Y15364329D01*
X-77196032Y15364331D01*
X-77190565Y15366187D01*
X-77184704Y15369469D01*
X-77092834Y15420919D01*
X-77000787Y15472468D01*
X-76833554Y15611554D01*
X-76773422Y15683855D01*
X-76714485Y15723439D01*
X-76643503Y15724875D01*
X-76580736Y15685115D01*
X-76573280Y15676385D01*
X-76425809Y15532725D01*
X-76416876Y15525491D01*
X-76245701Y15411116D01*
X-76235591Y15405626D01*
X-76046434Y15324358D01*
X-76035501Y15320806D01*
X-75945668Y15300479D01*
X-75931595Y15301368D01*
X-75928000Y15310767D01*
X-75928000Y15311488D01*
X-75420000Y15311488D01*
X-75416034Y15297982D01*
X-75402117Y15295989D01*
X-75391183Y15298614D01*
X-75196237Y15364790D01*
X-75185728Y15369469D01*
X-75006118Y15470056D01*
X-74996625Y15476580D01*
X-74838347Y15608218D01*
X-74830218Y15616347D01*
X-74773751Y15684241D01*
X-74714813Y15723825D01*
X-74643831Y15725261D01*
X-74581062Y15685498D01*
X-74573276Y15676381D01*
X-74425809Y15532725D01*
X-74416876Y15525491D01*
X-74245701Y15411116D01*
X-74235591Y15405626D01*
X-74046434Y15324358D01*
X-74035501Y15320806D01*
X-73945668Y15300479D01*
X-73931595Y15301368D01*
X-73928000Y15310767D01*
X-73928000Y16179885D01*
X-73932475Y16195124D01*
X-73933865Y16196329D01*
X-73941548Y16198000D01*
X-75401885Y16198000D01*
X-75417124Y16193525D01*
X-75418329Y16192135D01*
X-75420000Y16184452D01*
X-75420000Y15311488D01*
X-75928000Y15311488D01*
X-75928000Y16724115D01*
X-75420000Y16724115D01*
X-75415525Y16708876D01*
X-75414135Y16707671D01*
X-75406452Y16706000D01*
X-73946115Y16706000D01*
X-73930876Y16710475D01*
X-73929671Y16711865D01*
X-73928000Y16719548D01*
X-73928000Y18179885D01*
X-73932475Y18195124D01*
X-73933865Y18196329D01*
X-73941548Y18198000D01*
X-75401885Y18198000D01*
X-75417124Y18193525D01*
X-75418329Y18192135D01*
X-75420000Y18184452D01*
X-75420000Y16724115D01*
X-75928000Y16724115D01*
X-75928000Y18724115D01*
X-75420000Y18724115D01*
X-75415525Y18708876D01*
X-75414135Y18707671D01*
X-75406452Y18706000D01*
X-73946115Y18706000D01*
X-73930876Y18710475D01*
X-73929671Y18711865D01*
X-73928000Y18719548D01*
X-73928000Y19590663D01*
X-73931806Y19603625D01*
X-73946722Y19605561D01*
X-73975798Y19600565D01*
X-73986918Y19597585D01*
X-74180060Y19526331D01*
X-74190438Y19521381D01*
X-74367361Y19416123D01*
X-74376673Y19409357D01*
X-74531453Y19273619D01*
X-74539371Y19265275D01*
X-74574004Y19221344D01*
X-74631885Y19180232D01*
X-74702805Y19176938D01*
X-74764248Y19212510D01*
X-74773912Y19223963D01*
X-74787637Y19242344D01*
X-74795338Y19250897D01*
X-74946510Y19390639D01*
X-74955635Y19397640D01*
X-75129745Y19507495D01*
X-75139992Y19512716D01*
X-75331207Y19589003D01*
X-75342233Y19592270D01*
X-75402230Y19604203D01*
X-75415106Y19603051D01*
X-75420000Y19587898D01*
X-75420000Y18724115D01*
X-75928000Y18724115D01*
X-75928000Y19590663D01*
X-75931806Y19603625D01*
X-75946722Y19605561D01*
X-75975798Y19600565D01*
X-75986918Y19597585D01*
X-76180060Y19526331D01*
X-76190438Y19521381D01*
X-76367361Y19416123D01*
X-76376673Y19409357D01*
X-76531453Y19273619D01*
X-76539371Y19265275D01*
X-76573683Y19221751D01*
X-76631564Y19180639D01*
X-76702484Y19177345D01*
X-76763927Y19212917D01*
X-76773590Y19224369D01*
X-76787267Y19242685D01*
X-76787268Y19242686D01*
X-76790720Y19247309D01*
X-76825029Y19279024D01*
X-76861474Y19339953D01*
X-76865500Y19371549D01*
X-76865500Y83228918D01*
X-76845498Y83297039D01*
X-76828595Y83318013D01*
X-72107013Y88039595D01*
X-72044701Y88073621D01*
X-72017918Y88076500D01*
X-67219611Y88076500D01*
X-67151490Y88056498D01*
X-67124375Y88032999D01*
X-67018750Y87911062D01*
X-66846874Y87768368D01*
X-66776405Y87727189D01*
X-66773555Y87725524D01*
X-66724831Y87673886D01*
X-66711760Y87604103D01*
X-66738491Y87538331D01*
X-66778945Y87504973D01*
X-66791393Y87498493D01*
X-66795526Y87495390D01*
X-66795529Y87495388D01*
X-66819753Y87477200D01*
X-66970035Y87364365D01*
X-67124371Y87202862D01*
X-67250257Y87018320D01*
X-67344312Y86815695D01*
X-67404011Y86600430D01*
X-67427749Y86378305D01*
X-67427452Y86373152D01*
X-67427452Y86373149D01*
X-67421989Y86278410D01*
X-67414890Y86155285D01*
X-67413753Y86150239D01*
X-67413752Y86150233D01*
X-67393881Y86062061D01*
X-67365778Y85937361D01*
X-67281734Y85730384D01*
X-67165013Y85539912D01*
X-67018750Y85371062D01*
X-67014775Y85367762D01*
X-67014772Y85367759D01*
X-66919015Y85288260D01*
X-66879380Y85229357D01*
X-66873500Y85191316D01*
X-66873500Y35922082D01*
X-66893502Y35853961D01*
X-66910405Y35832987D01*
X-72239158Y30504234D01*
X-72240095Y30503306D01*
X-72296269Y30448296D01*
X-72304507Y30440229D01*
X-72327998Y30403779D01*
X-72335417Y30393454D01*
X-72362476Y30359557D01*
X-72365541Y30353216D01*
X-72365542Y30353215D01*
X-72377072Y30329363D01*
X-72384601Y30315946D01*
X-72402765Y30287762D01*
X-72405173Y30281145D01*
X-72405176Y30281140D01*
X-72417592Y30247027D01*
X-72422553Y30235284D01*
X-72438354Y30202597D01*
X-72438356Y30202592D01*
X-72441421Y30196251D01*
X-72443004Y30189393D01*
X-72443005Y30189391D01*
X-72448965Y30163574D01*
X-72453332Y30148831D01*
X-72464803Y30117315D01*
X-72465686Y30110325D01*
X-72465688Y30110317D01*
X-72470238Y30074299D01*
X-72472474Y30061747D01*
X-72473974Y30055247D01*
X-72482224Y30019515D01*
X-72482249Y30012469D01*
X-72482249Y30012466D01*
X-72482366Y29978944D01*
X-72482395Y29978062D01*
X-72482500Y29977231D01*
X-72482500Y29940581D01*
X-72482501Y29940141D01*
X-72482770Y29862960D01*
X-72482857Y29838130D01*
X-72482589Y29836930D01*
X-72482500Y29835293D01*
X-72482500Y19374305D01*
X-72502502Y19306184D01*
X-72525424Y19279572D01*
X-72531813Y19273969D01*
X-72531816Y19273966D01*
X-72536158Y19270158D01*
X-72539733Y19265623D01*
X-72539734Y19265622D01*
X-72574312Y19221760D01*
X-72632193Y19180647D01*
X-72703113Y19177353D01*
X-72764556Y19212925D01*
X-72774220Y19224378D01*
X-72787636Y19242345D01*
X-72795329Y19250889D01*
X-72946510Y19390639D01*
X-72955635Y19397640D01*
X-73129745Y19507495D01*
X-73139992Y19512716D01*
X-73331207Y19589003D01*
X-73342233Y19592270D01*
X-73402230Y19604203D01*
X-73415106Y19603051D01*
X-73420000Y19587898D01*
X-73420000Y15311488D01*
X-73416034Y15297982D01*
X-73402117Y15295989D01*
X-73391183Y15298614D01*
X-73196237Y15364790D01*
X-73185728Y15369469D01*
X-73006118Y15470056D01*
X-72996625Y15476580D01*
X-72838347Y15608218D01*
X-72830218Y15616347D01*
X-72774077Y15683849D01*
X-72715139Y15723433D01*
X-72644157Y15724869D01*
X-72581393Y15685112D01*
X-72581132Y15684807D01*
X-72577796Y15680086D01*
X-72421991Y15528308D01*
X-72417187Y15525098D01*
X-72364257Y15489731D01*
X-72241137Y15407464D01*
X-72235829Y15405183D01*
X-72235828Y15405183D01*
X-72046591Y15323881D01*
X-72046588Y15323880D01*
X-72041288Y15321603D01*
X-72035658Y15320329D01*
X-71928092Y15295989D01*
X-71829140Y15273598D01*
X-71823369Y15273371D01*
X-71823367Y15273371D01*
X-71750380Y15270504D01*
X-71611795Y15265059D01*
X-71396534Y15296270D01*
X-71391070Y15298125D01*
X-71391065Y15298126D01*
X-71196037Y15364329D01*
X-71196032Y15364331D01*
X-71190565Y15366187D01*
X-71184704Y15369469D01*
X-71092834Y15420919D01*
X-71000787Y15472468D01*
X-70833554Y15611554D01*
X-70773748Y15683463D01*
X-70714811Y15723047D01*
X-70643829Y15724483D01*
X-70581087Y15684742D01*
X-70577796Y15680086D01*
X-70573654Y15676051D01*
X-70573652Y15676049D01*
X-70507446Y15611554D01*
X-70421991Y15528308D01*
X-70417187Y15525098D01*
X-70364257Y15489731D01*
X-70241137Y15407464D01*
X-70235829Y15405183D01*
X-70235828Y15405183D01*
X-70046591Y15323881D01*
X-70046588Y15323880D01*
X-70041288Y15321603D01*
X-70035658Y15320329D01*
X-69928092Y15295989D01*
X-69829140Y15273598D01*
X-69823369Y15273371D01*
X-69823367Y15273371D01*
X-69750380Y15270504D01*
X-69611795Y15265059D01*
X-69396534Y15296270D01*
X-69391070Y15298125D01*
X-69391065Y15298126D01*
X-69196037Y15364329D01*
X-69196032Y15364331D01*
X-69190565Y15366187D01*
X-69184704Y15369469D01*
X-69092834Y15420919D01*
X-69000787Y15472468D01*
X-68833554Y15611554D01*
X-68773748Y15683463D01*
X-68714811Y15723047D01*
X-68643829Y15724483D01*
X-68581087Y15684742D01*
X-68577796Y15680086D01*
X-68573654Y15676051D01*
X-68573652Y15676049D01*
X-68507446Y15611554D01*
X-68421991Y15528308D01*
X-68417187Y15525098D01*
X-68364257Y15489731D01*
X-68241137Y15407464D01*
X-68235829Y15405183D01*
X-68235828Y15405183D01*
X-68046591Y15323881D01*
X-68046588Y15323880D01*
X-68041288Y15321603D01*
X-68035658Y15320329D01*
X-67928092Y15295989D01*
X-67829140Y15273598D01*
X-67823369Y15273371D01*
X-67823367Y15273371D01*
X-67750380Y15270504D01*
X-67611795Y15265059D01*
X-67396534Y15296270D01*
X-67391070Y15298125D01*
X-67391065Y15298126D01*
X-67196037Y15364329D01*
X-67196032Y15364331D01*
X-67190565Y15366187D01*
X-67184704Y15369469D01*
X-67092834Y15420919D01*
X-67000787Y15472468D01*
X-66833554Y15611554D01*
X-66773748Y15683463D01*
X-66714811Y15723047D01*
X-66643829Y15724483D01*
X-66581087Y15684742D01*
X-66577796Y15680086D01*
X-66573654Y15676051D01*
X-66573652Y15676049D01*
X-66507446Y15611554D01*
X-66421991Y15528308D01*
X-66417187Y15525098D01*
X-66364257Y15489731D01*
X-66241137Y15407464D01*
X-66235829Y15405183D01*
X-66235828Y15405183D01*
X-66046591Y15323881D01*
X-66046588Y15323880D01*
X-66041288Y15321603D01*
X-66035658Y15320329D01*
X-65928092Y15295989D01*
X-65829140Y15273598D01*
X-65823369Y15273371D01*
X-65823367Y15273371D01*
X-65750380Y15270504D01*
X-65611795Y15265059D01*
X-65396534Y15296270D01*
X-65391070Y15298125D01*
X-65391065Y15298126D01*
X-65196037Y15364329D01*
X-65196032Y15364331D01*
X-65190565Y15366187D01*
X-65184704Y15369469D01*
X-65092834Y15420919D01*
X-65000787Y15472468D01*
X-64833554Y15611554D01*
X-64773748Y15683463D01*
X-64714811Y15723047D01*
X-64643829Y15724483D01*
X-64581087Y15684742D01*
X-64577796Y15680086D01*
X-64573654Y15676051D01*
X-64573652Y15676049D01*
X-64507446Y15611554D01*
X-64421991Y15528308D01*
X-64417187Y15525098D01*
X-64364257Y15489731D01*
X-64241137Y15407464D01*
X-64235829Y15405183D01*
X-64235828Y15405183D01*
X-64046591Y15323881D01*
X-64046588Y15323880D01*
X-64041288Y15321603D01*
X-64035658Y15320329D01*
X-63928092Y15295989D01*
X-63829140Y15273598D01*
X-63823369Y15273371D01*
X-63823367Y15273371D01*
X-63750380Y15270504D01*
X-63611795Y15265059D01*
X-63396534Y15296270D01*
X-63391070Y15298125D01*
X-63391065Y15298126D01*
X-63196037Y15364329D01*
X-63196032Y15364331D01*
X-63190565Y15366187D01*
X-63184704Y15369469D01*
X-63092834Y15420919D01*
X-63000787Y15472468D01*
X-62833554Y15611554D01*
X-62773748Y15683463D01*
X-62714811Y15723047D01*
X-62643829Y15724483D01*
X-62581087Y15684742D01*
X-62577796Y15680086D01*
X-62573654Y15676051D01*
X-62573652Y15676049D01*
X-62507446Y15611554D01*
X-62421991Y15528308D01*
X-62417187Y15525098D01*
X-62364257Y15489731D01*
X-62241137Y15407464D01*
X-62235829Y15405183D01*
X-62235828Y15405183D01*
X-62046591Y15323881D01*
X-62046588Y15323880D01*
X-62041288Y15321603D01*
X-62035658Y15320329D01*
X-61928092Y15295989D01*
X-61829140Y15273598D01*
X-61823369Y15273371D01*
X-61823367Y15273371D01*
X-61750380Y15270504D01*
X-61611795Y15265059D01*
X-61396534Y15296270D01*
X-61391070Y15298125D01*
X-61391065Y15298126D01*
X-61196037Y15364329D01*
X-61196032Y15364331D01*
X-61190565Y15366187D01*
X-61184704Y15369469D01*
X-61092834Y15420919D01*
X-61000787Y15472468D01*
X-60833554Y15611554D01*
X-60773748Y15683463D01*
X-60714811Y15723047D01*
X-60643829Y15724483D01*
X-60581087Y15684742D01*
X-60577796Y15680086D01*
X-60573654Y15676051D01*
X-60573652Y15676049D01*
X-60507446Y15611554D01*
X-60421991Y15528308D01*
X-60417187Y15525098D01*
X-60364257Y15489731D01*
X-60241137Y15407464D01*
X-60235829Y15405183D01*
X-60235828Y15405183D01*
X-60046591Y15323881D01*
X-60046588Y15323880D01*
X-60041288Y15321603D01*
X-60035658Y15320329D01*
X-59928092Y15295989D01*
X-59829140Y15273598D01*
X-59823369Y15273371D01*
X-59823367Y15273371D01*
X-59750380Y15270504D01*
X-59611795Y15265059D01*
X-59396534Y15296270D01*
X-59391070Y15298125D01*
X-59391065Y15298126D01*
X-59196037Y15364329D01*
X-59196032Y15364331D01*
X-59190565Y15366187D01*
X-59184704Y15369469D01*
X-59092834Y15420919D01*
X-59000787Y15472468D01*
X-58833554Y15611554D01*
X-58773748Y15683463D01*
X-58714811Y15723047D01*
X-58643829Y15724483D01*
X-58581087Y15684742D01*
X-58577796Y15680086D01*
X-58573654Y15676051D01*
X-58573652Y15676049D01*
X-58507446Y15611554D01*
X-58421991Y15528308D01*
X-58417187Y15525098D01*
X-58364257Y15489731D01*
X-58241137Y15407464D01*
X-58235829Y15405183D01*
X-58235828Y15405183D01*
X-58046591Y15323881D01*
X-58046588Y15323880D01*
X-58041288Y15321603D01*
X-58035658Y15320329D01*
X-57928092Y15295989D01*
X-57829140Y15273598D01*
X-57823369Y15273371D01*
X-57823367Y15273371D01*
X-57750380Y15270504D01*
X-57611795Y15265059D01*
X-57396534Y15296270D01*
X-57391070Y15298125D01*
X-57391065Y15298126D01*
X-57196037Y15364329D01*
X-57196032Y15364331D01*
X-57190565Y15366187D01*
X-57184704Y15369469D01*
X-57092834Y15420919D01*
X-57000787Y15472468D01*
X-56833554Y15611554D01*
X-56773748Y15683463D01*
X-56714811Y15723047D01*
X-56643829Y15724483D01*
X-56581087Y15684742D01*
X-56577796Y15680086D01*
X-56573654Y15676051D01*
X-56573652Y15676049D01*
X-56507446Y15611554D01*
X-56421991Y15528308D01*
X-56417187Y15525098D01*
X-56364257Y15489731D01*
X-56241137Y15407464D01*
X-56235829Y15405183D01*
X-56235828Y15405183D01*
X-56046591Y15323881D01*
X-56046588Y15323880D01*
X-56041288Y15321603D01*
X-56035658Y15320329D01*
X-55928092Y15295989D01*
X-55829140Y15273598D01*
X-55823369Y15273371D01*
X-55823367Y15273371D01*
X-55750380Y15270504D01*
X-55611795Y15265059D01*
X-55396534Y15296270D01*
X-55391070Y15298125D01*
X-55391065Y15298126D01*
X-55196037Y15364329D01*
X-55196032Y15364331D01*
X-55190565Y15366187D01*
X-55184704Y15369469D01*
X-55092834Y15420919D01*
X-55000787Y15472468D01*
X-54833554Y15611554D01*
X-54773748Y15683463D01*
X-54714811Y15723047D01*
X-54643829Y15724483D01*
X-54581087Y15684742D01*
X-54577796Y15680086D01*
X-54573654Y15676051D01*
X-54573652Y15676049D01*
X-54507446Y15611554D01*
X-54421991Y15528308D01*
X-54417187Y15525098D01*
X-54364257Y15489731D01*
X-54241137Y15407464D01*
X-54235829Y15405183D01*
X-54235828Y15405183D01*
X-54046591Y15323881D01*
X-54046588Y15323880D01*
X-54041288Y15321603D01*
X-54035658Y15320329D01*
X-53928092Y15295989D01*
X-53829140Y15273598D01*
X-53823369Y15273371D01*
X-53823367Y15273371D01*
X-53750380Y15270504D01*
X-53611795Y15265059D01*
X-53396534Y15296270D01*
X-53391070Y15298125D01*
X-53391065Y15298126D01*
X-53196037Y15364329D01*
X-53196032Y15364331D01*
X-53190565Y15366187D01*
X-53184704Y15369469D01*
X-53092834Y15420919D01*
X-53000787Y15472468D01*
X-52833554Y15611554D01*
X-52773748Y15683463D01*
X-52714811Y15723047D01*
X-52643829Y15724483D01*
X-52581087Y15684742D01*
X-52577796Y15680086D01*
X-52573654Y15676051D01*
X-52573652Y15676049D01*
X-52507446Y15611554D01*
X-52421991Y15528308D01*
X-52417187Y15525098D01*
X-52364257Y15489731D01*
X-52241137Y15407464D01*
X-52235829Y15405183D01*
X-52235828Y15405183D01*
X-52046591Y15323881D01*
X-52046588Y15323880D01*
X-52041288Y15321603D01*
X-52035658Y15320329D01*
X-51928092Y15295989D01*
X-51829140Y15273598D01*
X-51823369Y15273371D01*
X-51823367Y15273371D01*
X-51750380Y15270504D01*
X-51611795Y15265059D01*
X-51396534Y15296270D01*
X-51391070Y15298125D01*
X-51391065Y15298126D01*
X-51196037Y15364329D01*
X-51196032Y15364331D01*
X-51190565Y15366187D01*
X-51184704Y15369469D01*
X-51092834Y15420919D01*
X-51000787Y15472468D01*
X-50833554Y15611554D01*
X-50773748Y15683463D01*
X-50714811Y15723047D01*
X-50643829Y15724483D01*
X-50581087Y15684742D01*
X-50577796Y15680086D01*
X-50573654Y15676051D01*
X-50573652Y15676049D01*
X-50507446Y15611554D01*
X-50421991Y15528308D01*
X-50417187Y15525098D01*
X-50364257Y15489731D01*
X-50241137Y15407464D01*
X-50235829Y15405183D01*
X-50235828Y15405183D01*
X-50046591Y15323881D01*
X-50046588Y15323880D01*
X-50041288Y15321603D01*
X-50035658Y15320329D01*
X-49928092Y15295989D01*
X-49829140Y15273598D01*
X-49823369Y15273371D01*
X-49823367Y15273371D01*
X-49750380Y15270504D01*
X-49611795Y15265059D01*
X-49396534Y15296270D01*
X-49391070Y15298125D01*
X-49391065Y15298126D01*
X-49196037Y15364329D01*
X-49196032Y15364331D01*
X-49190565Y15366187D01*
X-49184704Y15369469D01*
X-49092834Y15420919D01*
X-49000787Y15472468D01*
X-48833554Y15611554D01*
X-48773422Y15683855D01*
X-48714485Y15723439D01*
X-48643503Y15724875D01*
X-48580736Y15685115D01*
X-48573280Y15676385D01*
X-48425809Y15532725D01*
X-48416876Y15525491D01*
X-48245701Y15411116D01*
X-48235591Y15405626D01*
X-48046434Y15324358D01*
X-48035501Y15320806D01*
X-47945668Y15300479D01*
X-47931595Y15301368D01*
X-47928000Y15310767D01*
X-47928000Y15311488D01*
X-47420000Y15311488D01*
X-47416034Y15297982D01*
X-47402117Y15295989D01*
X-47391183Y15298614D01*
X-47196237Y15364790D01*
X-47185728Y15369469D01*
X-47006118Y15470056D01*
X-46996625Y15476580D01*
X-46838347Y15608218D01*
X-46830218Y15616347D01*
X-46773751Y15684241D01*
X-46714813Y15723825D01*
X-46643831Y15725261D01*
X-46581062Y15685498D01*
X-46573276Y15676381D01*
X-46425809Y15532725D01*
X-46416876Y15525491D01*
X-46245701Y15411116D01*
X-46235591Y15405626D01*
X-46046434Y15324358D01*
X-46035501Y15320806D01*
X-45945668Y15300479D01*
X-45931595Y15301368D01*
X-45928000Y15310767D01*
X-45928000Y15311488D01*
X-45420000Y15311488D01*
X-45416034Y15297982D01*
X-45402117Y15295989D01*
X-45391183Y15298614D01*
X-45196237Y15364790D01*
X-45185728Y15369469D01*
X-45006118Y15470056D01*
X-44996625Y15476580D01*
X-44838347Y15608218D01*
X-44830218Y15616347D01*
X-44774077Y15683849D01*
X-44715139Y15723433D01*
X-44644157Y15724869D01*
X-44581393Y15685112D01*
X-44581132Y15684807D01*
X-44577796Y15680086D01*
X-44421991Y15528308D01*
X-44417187Y15525098D01*
X-44364257Y15489731D01*
X-44241137Y15407464D01*
X-44235829Y15405183D01*
X-44235828Y15405183D01*
X-44046591Y15323881D01*
X-44046588Y15323880D01*
X-44041288Y15321603D01*
X-44035658Y15320329D01*
X-43928092Y15295989D01*
X-43829140Y15273598D01*
X-43823369Y15273371D01*
X-43823367Y15273371D01*
X-43750380Y15270504D01*
X-43611795Y15265059D01*
X-43396534Y15296270D01*
X-43391070Y15298125D01*
X-43391065Y15298126D01*
X-43196037Y15364329D01*
X-43196032Y15364331D01*
X-43190565Y15366187D01*
X-43184704Y15369469D01*
X-43092834Y15420919D01*
X-43000787Y15472468D01*
X-42833554Y15611554D01*
X-42773748Y15683463D01*
X-42714811Y15723047D01*
X-42643829Y15724483D01*
X-42581087Y15684742D01*
X-42577796Y15680086D01*
X-42573654Y15676051D01*
X-42573652Y15676049D01*
X-42507446Y15611554D01*
X-42421991Y15528308D01*
X-42417187Y15525098D01*
X-42364257Y15489731D01*
X-42241137Y15407464D01*
X-42235829Y15405183D01*
X-42235828Y15405183D01*
X-42046591Y15323881D01*
X-42046588Y15323880D01*
X-42041288Y15321603D01*
X-42035658Y15320329D01*
X-41928092Y15295989D01*
X-41829140Y15273598D01*
X-41823369Y15273371D01*
X-41823367Y15273371D01*
X-41750380Y15270504D01*
X-41611795Y15265059D01*
X-41396534Y15296270D01*
X-41391070Y15298125D01*
X-41391065Y15298126D01*
X-41196037Y15364329D01*
X-41196032Y15364331D01*
X-41190565Y15366187D01*
X-41184704Y15369469D01*
X-41092834Y15420919D01*
X-41000787Y15472468D01*
X-40833554Y15611554D01*
X-40694468Y15778787D01*
X-40588187Y15968565D01*
X-40586331Y15974032D01*
X-40586329Y15974037D01*
X-40520126Y16169065D01*
X-40520125Y16169070D01*
X-40518270Y16174534D01*
X-40487059Y16389795D01*
X-40485430Y16452000D01*
X-40505333Y16668600D01*
X-40564374Y16877945D01*
X-40660577Y17073026D01*
X-40738171Y17176938D01*
X-40787267Y17242685D01*
X-40787268Y17242686D01*
X-40790720Y17247309D01*
X-40810155Y17265275D01*
X-40882430Y17332085D01*
X-40912922Y17360271D01*
X-40949367Y17421200D01*
X-40947086Y17492160D01*
X-40907962Y17549670D01*
X-40907937Y17549690D01*
X-40833554Y17611554D01*
X-40694468Y17778787D01*
X-40588187Y17968565D01*
X-40586331Y17974032D01*
X-40586329Y17974037D01*
X-40520126Y18169065D01*
X-40520125Y18169070D01*
X-40518270Y18174534D01*
X-40487059Y18389795D01*
X-40485430Y18452000D01*
X-40505333Y18668600D01*
X-40564374Y18877945D01*
X-40660577Y19073026D01*
X-40738171Y19176938D01*
X-40787267Y19242685D01*
X-40787268Y19242686D01*
X-40790720Y19247309D01*
X-40794956Y19251225D01*
X-40946204Y19391037D01*
X-40946207Y19391039D01*
X-40950444Y19394956D01*
X-41134401Y19511024D01*
X-41336428Y19591624D01*
X-41549761Y19634059D01*
X-41555536Y19634135D01*
X-41555540Y19634135D01*
X-41664581Y19635562D01*
X-41767254Y19636906D01*
X-41772951Y19635927D01*
X-41772952Y19635927D01*
X-41975935Y19601048D01*
X-41975938Y19601047D01*
X-41981625Y19600070D01*
X-42185693Y19524786D01*
X-42372624Y19413573D01*
X-42536158Y19270158D01*
X-42539730Y19265628D01*
X-42539731Y19265626D01*
X-42573993Y19222166D01*
X-42631875Y19181053D01*
X-42702795Y19177761D01*
X-42764237Y19213333D01*
X-42773900Y19224785D01*
X-42787263Y19242681D01*
X-42787270Y19242688D01*
X-42790720Y19247309D01*
X-42794956Y19251225D01*
X-42946204Y19391037D01*
X-42946207Y19391039D01*
X-42950444Y19394956D01*
X-43134401Y19511024D01*
X-43336428Y19591624D01*
X-43549761Y19634059D01*
X-43555536Y19634135D01*
X-43555540Y19634135D01*
X-43664581Y19635562D01*
X-43767254Y19636906D01*
X-43772951Y19635927D01*
X-43772952Y19635927D01*
X-43975935Y19601048D01*
X-43975938Y19601047D01*
X-43981625Y19600070D01*
X-44185693Y19524786D01*
X-44372624Y19413573D01*
X-44536158Y19270158D01*
X-44539730Y19265627D01*
X-44574312Y19221760D01*
X-44632193Y19180647D01*
X-44703113Y19177353D01*
X-44764556Y19212925D01*
X-44774220Y19224378D01*
X-44787636Y19242345D01*
X-44795329Y19250889D01*
X-44946510Y19390639D01*
X-44955635Y19397640D01*
X-45129745Y19507495D01*
X-45139992Y19512716D01*
X-45331207Y19589003D01*
X-45342233Y19592270D01*
X-45402230Y19604203D01*
X-45415106Y19603051D01*
X-45420000Y19587898D01*
X-45420000Y15311488D01*
X-45928000Y15311488D01*
X-45928000Y16179885D01*
X-45932475Y16195124D01*
X-45933865Y16196329D01*
X-45941548Y16198000D01*
X-47401885Y16198000D01*
X-47417124Y16193525D01*
X-47418329Y16192135D01*
X-47420000Y16184452D01*
X-47420000Y15311488D01*
X-47928000Y15311488D01*
X-47928000Y16724115D01*
X-47420000Y16724115D01*
X-47415525Y16708876D01*
X-47414135Y16707671D01*
X-47406452Y16706000D01*
X-45946115Y16706000D01*
X-45930876Y16710475D01*
X-45929671Y16711865D01*
X-45928000Y16719548D01*
X-45928000Y18179885D01*
X-45932475Y18195124D01*
X-45933865Y18196329D01*
X-45941548Y18198000D01*
X-47401885Y18198000D01*
X-47417124Y18193525D01*
X-47418329Y18192135D01*
X-47420000Y18184452D01*
X-47420000Y16724115D01*
X-47928000Y16724115D01*
X-47928000Y18724115D01*
X-47420000Y18724115D01*
X-47415525Y18708876D01*
X-47414135Y18707671D01*
X-47406452Y18706000D01*
X-45946115Y18706000D01*
X-45930876Y18710475D01*
X-45929671Y18711865D01*
X-45928000Y18719548D01*
X-45928000Y19590663D01*
X-45931806Y19603625D01*
X-45946722Y19605561D01*
X-45975798Y19600565D01*
X-45986918Y19597585D01*
X-46180060Y19526331D01*
X-46190438Y19521381D01*
X-46367361Y19416123D01*
X-46376673Y19409357D01*
X-46531453Y19273619D01*
X-46539371Y19265275D01*
X-46574004Y19221344D01*
X-46631885Y19180232D01*
X-46702805Y19176938D01*
X-46764248Y19212510D01*
X-46773912Y19223963D01*
X-46787637Y19242344D01*
X-46795338Y19250897D01*
X-46946510Y19390639D01*
X-46955635Y19397640D01*
X-47129745Y19507495D01*
X-47139992Y19512716D01*
X-47331207Y19589003D01*
X-47342233Y19592270D01*
X-47402230Y19604203D01*
X-47415106Y19603051D01*
X-47420000Y19587898D01*
X-47420000Y18724115D01*
X-47928000Y18724115D01*
X-47928000Y19590663D01*
X-47931806Y19603625D01*
X-47946722Y19605561D01*
X-47975798Y19600565D01*
X-47986918Y19597585D01*
X-48180060Y19526331D01*
X-48190438Y19521381D01*
X-48367361Y19416123D01*
X-48376673Y19409357D01*
X-48531453Y19273619D01*
X-48539371Y19265275D01*
X-48573683Y19221751D01*
X-48631564Y19180639D01*
X-48702484Y19177345D01*
X-48763927Y19212917D01*
X-48773590Y19224369D01*
X-48787267Y19242685D01*
X-48787268Y19242686D01*
X-48790720Y19247309D01*
X-48794956Y19251225D01*
X-48946204Y19391037D01*
X-48946207Y19391039D01*
X-48950444Y19394956D01*
X-49134401Y19511024D01*
X-49336428Y19591624D01*
X-49549761Y19634059D01*
X-49555536Y19634135D01*
X-49555540Y19634135D01*
X-49664581Y19635562D01*
X-49767254Y19636906D01*
X-49772951Y19635927D01*
X-49772952Y19635927D01*
X-49975935Y19601048D01*
X-49975938Y19601047D01*
X-49981625Y19600070D01*
X-50185693Y19524786D01*
X-50372624Y19413573D01*
X-50536158Y19270158D01*
X-50539730Y19265628D01*
X-50539731Y19265626D01*
X-50573993Y19222166D01*
X-50631875Y19181053D01*
X-50702795Y19177761D01*
X-50764237Y19213333D01*
X-50773900Y19224785D01*
X-50787263Y19242681D01*
X-50787270Y19242688D01*
X-50790720Y19247309D01*
X-50794956Y19251225D01*
X-50946204Y19391037D01*
X-50946207Y19391039D01*
X-50950444Y19394956D01*
X-51134401Y19511024D01*
X-51336428Y19591624D01*
X-51549761Y19634059D01*
X-51555536Y19634135D01*
X-51555540Y19634135D01*
X-51664581Y19635562D01*
X-51767254Y19636906D01*
X-51772951Y19635927D01*
X-51772952Y19635927D01*
X-51975935Y19601048D01*
X-51975938Y19601047D01*
X-51981625Y19600070D01*
X-52185693Y19524786D01*
X-52372624Y19413573D01*
X-52536158Y19270158D01*
X-52539730Y19265628D01*
X-52539731Y19265626D01*
X-52573993Y19222166D01*
X-52631875Y19181053D01*
X-52702795Y19177761D01*
X-52764237Y19213333D01*
X-52773900Y19224785D01*
X-52787263Y19242681D01*
X-52787270Y19242688D01*
X-52790720Y19247309D01*
X-52794956Y19251225D01*
X-52946204Y19391037D01*
X-52946207Y19391039D01*
X-52950444Y19394956D01*
X-53134401Y19511024D01*
X-53336428Y19591624D01*
X-53549761Y19634059D01*
X-53555536Y19634135D01*
X-53555540Y19634135D01*
X-53664581Y19635562D01*
X-53767254Y19636906D01*
X-53772951Y19635927D01*
X-53772952Y19635927D01*
X-53975935Y19601048D01*
X-53975938Y19601047D01*
X-53981625Y19600070D01*
X-54185693Y19524786D01*
X-54372624Y19413573D01*
X-54536158Y19270158D01*
X-54539730Y19265628D01*
X-54539731Y19265626D01*
X-54573993Y19222166D01*
X-54631875Y19181053D01*
X-54702795Y19177761D01*
X-54764237Y19213333D01*
X-54773900Y19224785D01*
X-54787263Y19242681D01*
X-54787270Y19242688D01*
X-54790720Y19247309D01*
X-54794956Y19251225D01*
X-54946204Y19391037D01*
X-54946207Y19391039D01*
X-54950444Y19394956D01*
X-55134401Y19511024D01*
X-55336428Y19591624D01*
X-55549761Y19634059D01*
X-55555536Y19634135D01*
X-55555540Y19634135D01*
X-55664581Y19635562D01*
X-55767254Y19636906D01*
X-55772951Y19635927D01*
X-55772952Y19635927D01*
X-55975935Y19601048D01*
X-55975938Y19601047D01*
X-55981625Y19600070D01*
X-56185693Y19524786D01*
X-56372624Y19413573D01*
X-56536158Y19270158D01*
X-56539730Y19265628D01*
X-56539731Y19265626D01*
X-56573993Y19222166D01*
X-56631875Y19181053D01*
X-56702795Y19177761D01*
X-56764237Y19213333D01*
X-56773900Y19224785D01*
X-56787263Y19242681D01*
X-56787270Y19242688D01*
X-56790720Y19247309D01*
X-56794956Y19251225D01*
X-56946204Y19391037D01*
X-56946207Y19391039D01*
X-56950444Y19394956D01*
X-57134401Y19511024D01*
X-57336428Y19591624D01*
X-57549761Y19634059D01*
X-57555536Y19634135D01*
X-57555540Y19634135D01*
X-57664581Y19635562D01*
X-57767254Y19636906D01*
X-57772951Y19635927D01*
X-57772952Y19635927D01*
X-57975935Y19601048D01*
X-57975938Y19601047D01*
X-57981625Y19600070D01*
X-58185693Y19524786D01*
X-58372624Y19413573D01*
X-58536158Y19270158D01*
X-58539730Y19265628D01*
X-58539731Y19265626D01*
X-58573993Y19222166D01*
X-58631875Y19181053D01*
X-58702795Y19177761D01*
X-58764237Y19213333D01*
X-58773900Y19224785D01*
X-58787263Y19242681D01*
X-58787270Y19242688D01*
X-58790720Y19247309D01*
X-58794956Y19251225D01*
X-58946204Y19391037D01*
X-58946207Y19391039D01*
X-58950444Y19394956D01*
X-59134401Y19511024D01*
X-59336428Y19591624D01*
X-59549761Y19634059D01*
X-59555536Y19634135D01*
X-59555540Y19634135D01*
X-59664581Y19635562D01*
X-59767254Y19636906D01*
X-59772951Y19635927D01*
X-59772952Y19635927D01*
X-59975935Y19601048D01*
X-59975938Y19601047D01*
X-59981625Y19600070D01*
X-60185693Y19524786D01*
X-60372624Y19413573D01*
X-60536158Y19270158D01*
X-60539730Y19265628D01*
X-60539731Y19265626D01*
X-60573993Y19222166D01*
X-60631875Y19181053D01*
X-60702795Y19177761D01*
X-60764237Y19213333D01*
X-60773900Y19224785D01*
X-60787263Y19242681D01*
X-60787270Y19242688D01*
X-60790720Y19247309D01*
X-60794956Y19251225D01*
X-60946204Y19391037D01*
X-60946207Y19391039D01*
X-60950444Y19394956D01*
X-61134401Y19511024D01*
X-61336428Y19591624D01*
X-61549761Y19634059D01*
X-61555536Y19634135D01*
X-61555540Y19634135D01*
X-61664581Y19635562D01*
X-61767254Y19636906D01*
X-61772951Y19635927D01*
X-61772952Y19635927D01*
X-61975935Y19601048D01*
X-61975938Y19601047D01*
X-61981625Y19600070D01*
X-62185693Y19524786D01*
X-62372624Y19413573D01*
X-62536158Y19270158D01*
X-62539730Y19265628D01*
X-62539731Y19265626D01*
X-62573993Y19222166D01*
X-62631875Y19181053D01*
X-62702795Y19177761D01*
X-62764237Y19213333D01*
X-62773900Y19224785D01*
X-62787263Y19242681D01*
X-62787270Y19242688D01*
X-62790720Y19247309D01*
X-62794956Y19251225D01*
X-62946204Y19391037D01*
X-62946207Y19391039D01*
X-62950444Y19394956D01*
X-63134401Y19511024D01*
X-63336428Y19591624D01*
X-63549761Y19634059D01*
X-63555536Y19634135D01*
X-63555540Y19634135D01*
X-63664581Y19635562D01*
X-63767254Y19636906D01*
X-63772951Y19635927D01*
X-63772952Y19635927D01*
X-63975935Y19601048D01*
X-63975938Y19601047D01*
X-63981625Y19600070D01*
X-64185693Y19524786D01*
X-64372624Y19413573D01*
X-64536158Y19270158D01*
X-64539730Y19265628D01*
X-64539731Y19265626D01*
X-64573993Y19222166D01*
X-64631875Y19181053D01*
X-64702795Y19177761D01*
X-64764237Y19213333D01*
X-64773900Y19224785D01*
X-64787263Y19242681D01*
X-64787270Y19242688D01*
X-64790720Y19247309D01*
X-64794956Y19251225D01*
X-64946204Y19391037D01*
X-64946207Y19391039D01*
X-64950444Y19394956D01*
X-65134401Y19511024D01*
X-65336428Y19591624D01*
X-65549761Y19634059D01*
X-65555536Y19634135D01*
X-65555540Y19634135D01*
X-65664581Y19635562D01*
X-65767254Y19636906D01*
X-65772951Y19635927D01*
X-65772952Y19635927D01*
X-65975935Y19601048D01*
X-65975938Y19601047D01*
X-65981625Y19600070D01*
X-66185693Y19524786D01*
X-66372624Y19413573D01*
X-66536158Y19270158D01*
X-66539730Y19265628D01*
X-66539731Y19265626D01*
X-66573993Y19222166D01*
X-66631875Y19181053D01*
X-66702795Y19177761D01*
X-66764237Y19213333D01*
X-66773900Y19224785D01*
X-66787263Y19242681D01*
X-66787270Y19242688D01*
X-66790720Y19247309D01*
X-66794956Y19251225D01*
X-66946204Y19391037D01*
X-66946207Y19391039D01*
X-66950444Y19394956D01*
X-67134401Y19511024D01*
X-67336428Y19591624D01*
X-67549761Y19634059D01*
X-67555536Y19634135D01*
X-67555540Y19634135D01*
X-67664581Y19635562D01*
X-67767254Y19636906D01*
X-67772951Y19635927D01*
X-67772952Y19635927D01*
X-67975935Y19601048D01*
X-67975938Y19601047D01*
X-67981625Y19600070D01*
X-68185693Y19524786D01*
X-68372624Y19413573D01*
X-68536158Y19270158D01*
X-68539730Y19265628D01*
X-68539731Y19265626D01*
X-68573993Y19222166D01*
X-68631875Y19181053D01*
X-68702795Y19177761D01*
X-68764237Y19213333D01*
X-68773900Y19224785D01*
X-68787263Y19242681D01*
X-68787270Y19242688D01*
X-68790720Y19247309D01*
X-68794956Y19251225D01*
X-68946204Y19391037D01*
X-68946207Y19391039D01*
X-68950444Y19394956D01*
X-69134401Y19511024D01*
X-69336428Y19591624D01*
X-69549761Y19634059D01*
X-69555536Y19634135D01*
X-69555540Y19634135D01*
X-69664581Y19635562D01*
X-69767254Y19636906D01*
X-69772951Y19635927D01*
X-69772952Y19635927D01*
X-69975935Y19601048D01*
X-69975938Y19601047D01*
X-69981625Y19600070D01*
X-70185693Y19524786D01*
X-70372624Y19413573D01*
X-70536158Y19270158D01*
X-70539730Y19265628D01*
X-70539731Y19265626D01*
X-70573993Y19222166D01*
X-70631875Y19181053D01*
X-70702795Y19177761D01*
X-70764237Y19213333D01*
X-70773900Y19224785D01*
X-70787263Y19242681D01*
X-70787270Y19242688D01*
X-70790720Y19247309D01*
X-70825029Y19279024D01*
X-70861474Y19339953D01*
X-70865500Y19371549D01*
X-70865500Y22483113D01*
X-22862163Y22483113D01*
X-22847937Y22266067D01*
X-22794395Y22055247D01*
X-22703332Y21857715D01*
X-22699999Y21852999D01*
X-22612270Y21728866D01*
X-22577796Y21680086D01*
X-22421991Y21528308D01*
X-22241137Y21407464D01*
X-22235829Y21405183D01*
X-22235828Y21405183D01*
X-22046591Y21323881D01*
X-22046588Y21323880D01*
X-22041288Y21321603D01*
X-22035658Y21320329D01*
X-21937536Y21298126D01*
X-21829140Y21273598D01*
X-21823369Y21273371D01*
X-21823367Y21273371D01*
X-21750380Y21270504D01*
X-21611795Y21265059D01*
X-21396534Y21296270D01*
X-21391070Y21298125D01*
X-21391065Y21298126D01*
X-21196037Y21364329D01*
X-21196032Y21364331D01*
X-21190565Y21366187D01*
X-21000787Y21472468D01*
X-20952068Y21512987D01*
X-20886904Y21541168D01*
X-20816849Y21529644D01*
X-20770673Y21491678D01*
X-20712261Y21413739D01*
X-20595705Y21326385D01*
X-20459316Y21275255D01*
X-20397134Y21268500D01*
X-18950866Y21268500D01*
X-18888684Y21275255D01*
X-18752295Y21326385D01*
X-18635739Y21413739D01*
X-18548385Y21530295D01*
X-18497255Y21666684D01*
X-18490500Y21728866D01*
X-18490500Y23175134D01*
X-18497255Y23237316D01*
X-18548385Y23373705D01*
X-18635739Y23490261D01*
X-18713678Y23548673D01*
X-18756193Y23605532D01*
X-18761219Y23676351D01*
X-18734987Y23730068D01*
X-18698166Y23774341D01*
X-18694468Y23778787D01*
X-18588187Y23968565D01*
X-18586331Y23974032D01*
X-18586329Y23974037D01*
X-18520126Y24169065D01*
X-18520125Y24169070D01*
X-18518270Y24174534D01*
X-18487059Y24389795D01*
X-18485430Y24452000D01*
X-18505333Y24668600D01*
X-18564374Y24877945D01*
X-18660577Y25073026D01*
X-18773900Y25224785D01*
X-18787267Y25242685D01*
X-18787268Y25242686D01*
X-18790720Y25247309D01*
X-18913292Y25360613D01*
X-18949737Y25421542D01*
X-18947456Y25492501D01*
X-18908332Y25550012D01*
X-18838347Y25608218D01*
X-18830218Y25616347D01*
X-18698580Y25774625D01*
X-18692056Y25784118D01*
X-18591469Y25963728D01*
X-18586790Y25974237D01*
X-18520614Y26169183D01*
X-18517983Y26180143D01*
X-18519960Y26194008D01*
X-18533526Y26198000D01*
X-22812019Y26198000D01*
X-22825550Y26194027D01*
X-22826842Y26185038D01*
X-22795344Y26061015D01*
X-22791503Y26050168D01*
X-22705315Y25863211D01*
X-22699564Y25853250D01*
X-22580746Y25685127D01*
X-22573275Y25676379D01*
X-22433882Y25540589D01*
X-22399044Y25478728D01*
X-22403181Y25407852D01*
X-22438726Y25355604D01*
X-22536158Y25270158D01*
X-22539730Y25265627D01*
X-22580955Y25213333D01*
X-22670819Y25099342D01*
X-22772095Y24906846D01*
X-22836597Y24699118D01*
X-22862163Y24483113D01*
X-22847937Y24266067D01*
X-22846516Y24260471D01*
X-22846515Y24260466D01*
X-22795816Y24060842D01*
X-22794395Y24055247D01*
X-22703332Y23857715D01*
X-22577796Y23680086D01*
X-22573654Y23676051D01*
X-22434259Y23540259D01*
X-22399421Y23478398D01*
X-22403558Y23407522D01*
X-22439101Y23355274D01*
X-22536158Y23270158D01*
X-22670819Y23099342D01*
X-22772095Y22906846D01*
X-22836597Y22699118D01*
X-22862163Y22483113D01*
X-70865500Y22483113D01*
X-70865500Y26709201D01*
X-22828782Y26709201D01*
X-22822050Y26706000D01*
X-21946115Y26706000D01*
X-21930876Y26710475D01*
X-21929671Y26711865D01*
X-21928000Y26719548D01*
X-21928000Y26724115D01*
X-21420000Y26724115D01*
X-21415525Y26708876D01*
X-21414135Y26707671D01*
X-21406452Y26706000D01*
X-19946115Y26706000D01*
X-19930876Y26710475D01*
X-19929671Y26711865D01*
X-19928000Y26719548D01*
X-19928000Y26724115D01*
X-19420000Y26724115D01*
X-19415525Y26708876D01*
X-19414135Y26707671D01*
X-19406452Y26706000D01*
X-18534515Y26706000D01*
X-18520984Y26709973D01*
X-18519815Y26718108D01*
X-18563275Y26872206D01*
X-18567397Y26882945D01*
X-18658451Y27067583D01*
X-18664462Y27077392D01*
X-18787640Y27242349D01*
X-18795329Y27250889D01*
X-18913680Y27360291D01*
X-18950125Y27421220D01*
X-18947844Y27492180D01*
X-18908720Y27549690D01*
X-18838347Y27608218D01*
X-18830218Y27616347D01*
X-18698580Y27774625D01*
X-18692056Y27784118D01*
X-18591469Y27963728D01*
X-18586790Y27974237D01*
X-18520614Y28169183D01*
X-18517983Y28180143D01*
X-18519960Y28194008D01*
X-18533526Y28198000D01*
X-19401885Y28198000D01*
X-19417124Y28193525D01*
X-19418329Y28192135D01*
X-19420000Y28184452D01*
X-19420000Y26724115D01*
X-19928000Y26724115D01*
X-19928000Y28179885D01*
X-19932475Y28195124D01*
X-19933865Y28196329D01*
X-19941548Y28198000D01*
X-21401885Y28198000D01*
X-21417124Y28193525D01*
X-21418329Y28192135D01*
X-21420000Y28184452D01*
X-21420000Y26724115D01*
X-21928000Y26724115D01*
X-21928000Y28179885D01*
X-21932475Y28195124D01*
X-21933865Y28196329D01*
X-21941548Y28198000D01*
X-22812019Y28198000D01*
X-22825550Y28194027D01*
X-22826842Y28185038D01*
X-22795344Y28061015D01*
X-22791503Y28050168D01*
X-22705315Y27863211D01*
X-22699564Y27853250D01*
X-22580746Y27685127D01*
X-22573280Y27676385D01*
X-22433523Y27540239D01*
X-22398686Y27478377D01*
X-22402823Y27407501D01*
X-22438368Y27355253D01*
X-22531448Y27273624D01*
X-22539370Y27265276D01*
X-22666820Y27103606D01*
X-22673091Y27093950D01*
X-22768940Y26911771D01*
X-22773345Y26901137D01*
X-22828564Y26723300D01*
X-22828782Y26709201D01*
X-70865500Y26709201D01*
X-70865500Y29538918D01*
X-70845498Y29607039D01*
X-70828595Y29628013D01*
X-65499842Y34956766D01*
X-65498905Y34957694D01*
X-65439525Y35015843D01*
X-65439524Y35015844D01*
X-65434493Y35020771D01*
X-65411002Y35057221D01*
X-65403583Y35067546D01*
X-65376524Y35101443D01*
X-65361927Y35131638D01*
X-65354398Y35145055D01*
X-65340052Y35167316D01*
X-65336235Y35173238D01*
X-65333827Y35179855D01*
X-65333824Y35179860D01*
X-65321408Y35213973D01*
X-65316447Y35225716D01*
X-65300647Y35258400D01*
X-65300644Y35258409D01*
X-65297579Y35264749D01*
X-65290034Y35297428D01*
X-65285666Y35312175D01*
X-65274197Y35343685D01*
X-65273315Y35350670D01*
X-65273313Y35350677D01*
X-65268763Y35386692D01*
X-65266528Y35399243D01*
X-65256775Y35441485D01*
X-65256633Y35482072D01*
X-65256604Y35482942D01*
X-65256500Y35483769D01*
X-65256500Y35520410D01*
X-65256143Y35622870D01*
X-65256411Y35624070D01*
X-65256500Y35625708D01*
X-65256500Y85188032D01*
X-65236498Y85256153D01*
X-65203669Y85290610D01*
X-65189346Y85300826D01*
X-65189339Y85300832D01*
X-65185140Y85303827D01*
X-65026904Y85461511D01*
X-64967406Y85544311D01*
X-64899565Y85638723D01*
X-64896547Y85642923D01*
X-64797570Y85843189D01*
X-64732630Y86056931D01*
X-64703471Y86278410D01*
X-64701844Y86345000D01*
X-64704582Y86378305D01*
X-59807749Y86378305D01*
X-59807452Y86373152D01*
X-59807452Y86373149D01*
X-59801989Y86278410D01*
X-59794890Y86155285D01*
X-59793753Y86150239D01*
X-59793752Y86150233D01*
X-59773881Y86062061D01*
X-59745778Y85937361D01*
X-59661734Y85730384D01*
X-59545013Y85539912D01*
X-59398750Y85371062D01*
X-59394775Y85367762D01*
X-59394772Y85367759D01*
X-59299015Y85288260D01*
X-59259380Y85229357D01*
X-59253500Y85191316D01*
X-59253500Y85124214D01*
X-59253507Y85122894D01*
X-59254451Y85032779D01*
X-59245289Y84990403D01*
X-59243231Y84977837D01*
X-59238397Y84934745D01*
X-59236081Y84928094D01*
X-59236080Y84928090D01*
X-59227367Y84903070D01*
X-59223204Y84888258D01*
X-59216119Y84855490D01*
X-59197792Y84816187D01*
X-59193010Y84804411D01*
X-59178745Y84763448D01*
X-59175011Y84757473D01*
X-59175010Y84757470D01*
X-59160973Y84735005D01*
X-59153634Y84721488D01*
X-59142441Y84697486D01*
X-59139462Y84691098D01*
X-59135145Y84685533D01*
X-59135144Y84685531D01*
X-59112894Y84656847D01*
X-59105598Y84646388D01*
X-59082626Y84609624D01*
X-59077666Y84604629D01*
X-59077665Y84604628D01*
X-59054024Y84580821D01*
X-59053439Y84580196D01*
X-59052922Y84579530D01*
X-59026932Y84553540D01*
X-58954815Y84480918D01*
X-58953778Y84480260D01*
X-58952549Y84479157D01*
X-46565405Y72092014D01*
X-46531379Y72029702D01*
X-46528500Y72002919D01*
X-46528500Y41919214D01*
X-46528507Y41917894D01*
X-46529451Y41827779D01*
X-46520289Y41785403D01*
X-46518231Y41772837D01*
X-46513397Y41729745D01*
X-46511081Y41723094D01*
X-46511080Y41723090D01*
X-46502367Y41698070D01*
X-46498204Y41683258D01*
X-46491119Y41650490D01*
X-46472792Y41611187D01*
X-46468010Y41599411D01*
X-46453745Y41558448D01*
X-46450011Y41552473D01*
X-46450010Y41552470D01*
X-46435973Y41530005D01*
X-46428634Y41516488D01*
X-46417441Y41492486D01*
X-46414462Y41486098D01*
X-46410145Y41480533D01*
X-46410144Y41480531D01*
X-46387894Y41451847D01*
X-46380598Y41441388D01*
X-46367983Y41421200D01*
X-46357626Y41404624D01*
X-46352666Y41399629D01*
X-46352665Y41399628D01*
X-46329024Y41375821D01*
X-46328439Y41375196D01*
X-46327922Y41374530D01*
X-46301932Y41348540D01*
X-46229815Y41275918D01*
X-46228778Y41275260D01*
X-46227549Y41274157D01*
X-36840234Y31886842D01*
X-36839306Y31885905D01*
X-36776229Y31821493D01*
X-36739779Y31798002D01*
X-36729454Y31790583D01*
X-36695557Y31763524D01*
X-36689216Y31760459D01*
X-36689215Y31760458D01*
X-36665363Y31748928D01*
X-36651946Y31741399D01*
X-36623762Y31723235D01*
X-36617145Y31720827D01*
X-36617140Y31720824D01*
X-36583027Y31708408D01*
X-36571284Y31703447D01*
X-36538600Y31687647D01*
X-36538591Y31687644D01*
X-36532251Y31684579D01*
X-36525386Y31682994D01*
X-36499572Y31677034D01*
X-36484832Y31672668D01*
X-36453315Y31661197D01*
X-36446330Y31660315D01*
X-36446323Y31660313D01*
X-36410308Y31655763D01*
X-36397757Y31653528D01*
X-36355515Y31643775D01*
X-36348471Y31643750D01*
X-36348467Y31643750D01*
X-36314928Y31643633D01*
X-36314058Y31643604D01*
X-36313231Y31643500D01*
X-36276742Y31643500D01*
X-36276303Y31643499D01*
X-36177657Y31643155D01*
X-36177652Y31643155D01*
X-36174130Y31643143D01*
X-36172930Y31643411D01*
X-36171292Y31643500D01*
X-22591467Y31643500D01*
X-22523346Y31623498D01*
X-22503546Y31607754D01*
X-22434259Y31540258D01*
X-22399421Y31478397D01*
X-22403558Y31407521D01*
X-22439102Y31355274D01*
X-22536158Y31270158D01*
X-22539730Y31265627D01*
X-22580955Y31213333D01*
X-22670819Y31099342D01*
X-22772095Y30906846D01*
X-22836597Y30699118D01*
X-22862163Y30483113D01*
X-22847937Y30266067D01*
X-22846516Y30260471D01*
X-22846515Y30260466D01*
X-22808381Y30110317D01*
X-22794395Y30055247D01*
X-22703332Y29857715D01*
X-22577796Y29680086D01*
X-22433898Y29539907D01*
X-22399062Y29478048D01*
X-22403199Y29407172D01*
X-22438744Y29354923D01*
X-22531448Y29273624D01*
X-22539370Y29265276D01*
X-22666820Y29103606D01*
X-22673091Y29093950D01*
X-22768940Y28911771D01*
X-22773345Y28901137D01*
X-22828564Y28723300D01*
X-22828782Y28709201D01*
X-22822050Y28706000D01*
X-18534515Y28706000D01*
X-18520984Y28709973D01*
X-18519815Y28718108D01*
X-18563275Y28872206D01*
X-18567397Y28882945D01*
X-18658451Y29067583D01*
X-18664462Y29077392D01*
X-18787640Y29242349D01*
X-18795329Y29250889D01*
X-18913309Y29359948D01*
X-18949754Y29420877D01*
X-18947473Y29491837D01*
X-18908350Y29549347D01*
X-18858138Y29591108D01*
X-18833554Y29611554D01*
X-18694468Y29778787D01*
X-18604105Y29940141D01*
X-18591011Y29963522D01*
X-18591010Y29963524D01*
X-18588187Y29968565D01*
X-18586331Y29974032D01*
X-18586329Y29974037D01*
X-18520126Y30169065D01*
X-18520125Y30169070D01*
X-18518270Y30174534D01*
X-18487059Y30389795D01*
X-18485430Y30452000D01*
X-18505333Y30668600D01*
X-18564374Y30877945D01*
X-18660577Y31073026D01*
X-18773900Y31224785D01*
X-18787267Y31242685D01*
X-18787268Y31242686D01*
X-18790720Y31247309D01*
X-18912922Y31360271D01*
X-18949367Y31421200D01*
X-18947086Y31492160D01*
X-18907962Y31549670D01*
X-18837992Y31607863D01*
X-18833554Y31611554D01*
X-18694468Y31778787D01*
X-18588187Y31968565D01*
X-18586331Y31974032D01*
X-18586329Y31974037D01*
X-18520126Y32169065D01*
X-18520125Y32169070D01*
X-18518270Y32174534D01*
X-18487059Y32389795D01*
X-18485430Y32452000D01*
X-18505333Y32668600D01*
X-18564374Y32877945D01*
X-18660577Y33073026D01*
X-18773900Y33224785D01*
X-18787267Y33242685D01*
X-18787268Y33242686D01*
X-18790720Y33247309D01*
X-18806494Y33261891D01*
X-18912922Y33360271D01*
X-18949367Y33421200D01*
X-18947086Y33492160D01*
X-18907962Y33549670D01*
X-18837992Y33607863D01*
X-18833554Y33611554D01*
X-18694468Y33778787D01*
X-18588187Y33968565D01*
X-18586331Y33974032D01*
X-18586329Y33974037D01*
X-18520126Y34169065D01*
X-18520125Y34169070D01*
X-18518270Y34174534D01*
X-18487059Y34389795D01*
X-18485430Y34452000D01*
X-18505333Y34668600D01*
X-18564374Y34877945D01*
X-18660577Y35073026D01*
X-18730986Y35167316D01*
X-18787267Y35242685D01*
X-18787268Y35242686D01*
X-18790720Y35247309D01*
X-18809586Y35264749D01*
X-18912922Y35360271D01*
X-18949367Y35421200D01*
X-18947086Y35492160D01*
X-18907962Y35549670D01*
X-18837992Y35607863D01*
X-18833554Y35611554D01*
X-18694468Y35778787D01*
X-18588187Y35968565D01*
X-18586331Y35974032D01*
X-18586329Y35974037D01*
X-18520126Y36169065D01*
X-18520125Y36169070D01*
X-18518270Y36174534D01*
X-18487059Y36389795D01*
X-18485430Y36452000D01*
X-18505333Y36668600D01*
X-18564374Y36877945D01*
X-18660577Y37073026D01*
X-18773900Y37224785D01*
X-18787267Y37242685D01*
X-18787268Y37242686D01*
X-18790720Y37247309D01*
X-18912922Y37360271D01*
X-18949367Y37421200D01*
X-18947086Y37492160D01*
X-18907962Y37549670D01*
X-18837992Y37607863D01*
X-18833554Y37611554D01*
X-18694468Y37778787D01*
X-18588187Y37968565D01*
X-18586331Y37974032D01*
X-18586329Y37974037D01*
X-18520126Y38169065D01*
X-18520125Y38169070D01*
X-18518270Y38174534D01*
X-18487059Y38389795D01*
X-18485430Y38452000D01*
X-18505333Y38668600D01*
X-18564374Y38877945D01*
X-18660577Y39073026D01*
X-18773900Y39224785D01*
X-18787267Y39242685D01*
X-18787268Y39242686D01*
X-18790720Y39247309D01*
X-18912922Y39360271D01*
X-18949367Y39421200D01*
X-18947086Y39492160D01*
X-18907962Y39549670D01*
X-18837992Y39607863D01*
X-18833554Y39611554D01*
X-18694468Y39778787D01*
X-18588187Y39968565D01*
X-18586331Y39974032D01*
X-18586329Y39974037D01*
X-18520126Y40169065D01*
X-18520125Y40169070D01*
X-18518270Y40174534D01*
X-18487059Y40389795D01*
X-18485430Y40452000D01*
X-18505333Y40668600D01*
X-18564374Y40877945D01*
X-18660577Y41073026D01*
X-18773900Y41224785D01*
X-18787267Y41242685D01*
X-18787268Y41242686D01*
X-18790720Y41247309D01*
X-18912922Y41360271D01*
X-18949367Y41421200D01*
X-18947086Y41492160D01*
X-18907962Y41549670D01*
X-18897407Y41558448D01*
X-18833554Y41611554D01*
X-18694468Y41778787D01*
X-18588187Y41968565D01*
X-18586331Y41974032D01*
X-18586329Y41974037D01*
X-18520126Y42169065D01*
X-18520125Y42169070D01*
X-18518270Y42174534D01*
X-18487059Y42389795D01*
X-18485430Y42452000D01*
X-18505333Y42668600D01*
X-18564374Y42877945D01*
X-18660577Y43073026D01*
X-18773900Y43224785D01*
X-18787267Y43242685D01*
X-18787268Y43242686D01*
X-18790720Y43247309D01*
X-18912922Y43360271D01*
X-18949367Y43421200D01*
X-18947086Y43492160D01*
X-18907962Y43549670D01*
X-18837992Y43607863D01*
X-18833554Y43611554D01*
X-18694468Y43778787D01*
X-18588187Y43968565D01*
X-18586331Y43974032D01*
X-18586329Y43974037D01*
X-18520126Y44169065D01*
X-18520125Y44169070D01*
X-18518270Y44174534D01*
X-18487059Y44389795D01*
X-18485430Y44452000D01*
X-18505333Y44668600D01*
X-18564374Y44877945D01*
X-18660577Y45073026D01*
X-18773900Y45224785D01*
X-18787267Y45242685D01*
X-18787268Y45242686D01*
X-18790720Y45247309D01*
X-18912922Y45360271D01*
X-18949367Y45421200D01*
X-18947086Y45492160D01*
X-18907962Y45549670D01*
X-18837992Y45607863D01*
X-18833554Y45611554D01*
X-18694468Y45778787D01*
X-18588187Y45968565D01*
X-18586331Y45974032D01*
X-18586329Y45974037D01*
X-18520126Y46169065D01*
X-18520125Y46169070D01*
X-18518270Y46174534D01*
X-18487059Y46389795D01*
X-18485430Y46452000D01*
X-18505333Y46668600D01*
X-18564374Y46877945D01*
X-18660577Y47073026D01*
X-18773900Y47224785D01*
X-18787267Y47242685D01*
X-18787268Y47242686D01*
X-18790720Y47247309D01*
X-18806494Y47261891D01*
X-18912922Y47360271D01*
X-18949367Y47421200D01*
X-18947086Y47492160D01*
X-18907962Y47549670D01*
X-18837992Y47607863D01*
X-18833554Y47611554D01*
X-18694468Y47778787D01*
X-18588187Y47968565D01*
X-18586331Y47974032D01*
X-18586329Y47974037D01*
X-18520126Y48169065D01*
X-18520125Y48169070D01*
X-18518270Y48174534D01*
X-18487059Y48389795D01*
X-18485430Y48452000D01*
X-18505333Y48668600D01*
X-18564374Y48877945D01*
X-18660577Y49073026D01*
X-18773900Y49224785D01*
X-18787267Y49242685D01*
X-18787268Y49242686D01*
X-18790720Y49247309D01*
X-18912922Y49360271D01*
X-18949367Y49421200D01*
X-18947086Y49492160D01*
X-18907962Y49549670D01*
X-18837992Y49607863D01*
X-18833554Y49611554D01*
X-18694468Y49778787D01*
X-18588187Y49968565D01*
X-18586331Y49974032D01*
X-18586329Y49974037D01*
X-18520126Y50169065D01*
X-18520125Y50169070D01*
X-18518270Y50174534D01*
X-18487059Y50389795D01*
X-18485430Y50452000D01*
X-18505333Y50668600D01*
X-18564374Y50877945D01*
X-18660577Y51073026D01*
X-18773900Y51224785D01*
X-18787267Y51242685D01*
X-18787268Y51242686D01*
X-18790720Y51247309D01*
X-18912922Y51360271D01*
X-18949367Y51421200D01*
X-18947086Y51492160D01*
X-18907962Y51549670D01*
X-18895988Y51559628D01*
X-18833554Y51611554D01*
X-18694468Y51778787D01*
X-18604650Y51939168D01*
X-18591011Y51963522D01*
X-18591010Y51963524D01*
X-18588187Y51968565D01*
X-18586331Y51974032D01*
X-18586329Y51974037D01*
X-18520126Y52169065D01*
X-18520125Y52169070D01*
X-18518270Y52174534D01*
X-18487059Y52389795D01*
X-18485430Y52452000D01*
X-18505333Y52668600D01*
X-18564374Y52877945D01*
X-18660577Y53073026D01*
X-18773900Y53224785D01*
X-18787267Y53242685D01*
X-18787268Y53242686D01*
X-18790720Y53247309D01*
X-18913292Y53360613D01*
X-18949737Y53421542D01*
X-18947456Y53492501D01*
X-18908332Y53550012D01*
X-18838347Y53608218D01*
X-18830218Y53616347D01*
X-18698580Y53774625D01*
X-18692056Y53784118D01*
X-18591469Y53963728D01*
X-18586790Y53974237D01*
X-18520614Y54169183D01*
X-18517983Y54180143D01*
X-18519960Y54194008D01*
X-18533526Y54198000D01*
X-22812019Y54198000D01*
X-22825550Y54194027D01*
X-22826842Y54185038D01*
X-22795344Y54061015D01*
X-22791503Y54050168D01*
X-22705315Y53863211D01*
X-22699564Y53853250D01*
X-22580746Y53685127D01*
X-22573275Y53676379D01*
X-22433882Y53540589D01*
X-22399044Y53478728D01*
X-22403181Y53407852D01*
X-22438726Y53355604D01*
X-22536158Y53270158D01*
X-22539730Y53265627D01*
X-22580955Y53213333D01*
X-22670819Y53099342D01*
X-22772095Y52906846D01*
X-22836597Y52699118D01*
X-22862163Y52483113D01*
X-22847937Y52266067D01*
X-22846516Y52260471D01*
X-22846515Y52260466D01*
X-22800482Y52079214D01*
X-22794395Y52055247D01*
X-22703332Y51857715D01*
X-22577796Y51680086D01*
X-22459270Y51564624D01*
X-22434259Y51540259D01*
X-22399421Y51478398D01*
X-22403558Y51407522D01*
X-22439101Y51355274D01*
X-22536158Y51270158D01*
X-22539730Y51265627D01*
X-22580955Y51213333D01*
X-22670819Y51099342D01*
X-22772095Y50906846D01*
X-22836597Y50699118D01*
X-22862163Y50483113D01*
X-22847937Y50266067D01*
X-22846516Y50260471D01*
X-22846515Y50260466D01*
X-22795816Y50060842D01*
X-22794395Y50055247D01*
X-22703332Y49857715D01*
X-22577796Y49680086D01*
X-22573654Y49676051D01*
X-22434259Y49540259D01*
X-22399421Y49478398D01*
X-22403558Y49407522D01*
X-22439101Y49355274D01*
X-22536158Y49270158D01*
X-22539730Y49265627D01*
X-22580955Y49213333D01*
X-22670819Y49099342D01*
X-22772095Y48906846D01*
X-22836597Y48699118D01*
X-22862163Y48483113D01*
X-22847937Y48266067D01*
X-22846516Y48260471D01*
X-22846515Y48260466D01*
X-22795816Y48060842D01*
X-22794395Y48055247D01*
X-22703332Y47857715D01*
X-22577796Y47680086D01*
X-22573654Y47676051D01*
X-22434259Y47540259D01*
X-22399421Y47478398D01*
X-22403558Y47407522D01*
X-22439102Y47355274D01*
X-22439103Y47355273D01*
X-22505088Y47297405D01*
X-22511515Y47291769D01*
X-22575919Y47261891D01*
X-22594593Y47260500D01*
X-32094918Y47260500D01*
X-32163039Y47280502D01*
X-32184013Y47297405D01*
X-37254595Y52367987D01*
X-37288621Y52430299D01*
X-37291500Y52457082D01*
X-37291500Y54709201D01*
X-22828782Y54709201D01*
X-22822050Y54706000D01*
X-21946115Y54706000D01*
X-21930876Y54710475D01*
X-21929671Y54711865D01*
X-21928000Y54719548D01*
X-21928000Y54724115D01*
X-21420000Y54724115D01*
X-21415525Y54708876D01*
X-21414135Y54707671D01*
X-21406452Y54706000D01*
X-19946115Y54706000D01*
X-19930876Y54710475D01*
X-19929671Y54711865D01*
X-19928000Y54719548D01*
X-19928000Y54724115D01*
X-19420000Y54724115D01*
X-19415525Y54708876D01*
X-19414135Y54707671D01*
X-19406452Y54706000D01*
X-18534515Y54706000D01*
X-18520984Y54709973D01*
X-18519815Y54718108D01*
X-18563275Y54872206D01*
X-18567397Y54882945D01*
X-18658451Y55067583D01*
X-18664462Y55077392D01*
X-18787640Y55242349D01*
X-18795329Y55250889D01*
X-18913680Y55360291D01*
X-18950125Y55421220D01*
X-18947844Y55492180D01*
X-18908720Y55549690D01*
X-18838347Y55608218D01*
X-18830218Y55616347D01*
X-18698580Y55774625D01*
X-18692056Y55784118D01*
X-18591469Y55963728D01*
X-18586790Y55974237D01*
X-18520614Y56169183D01*
X-18517983Y56180143D01*
X-18519960Y56194008D01*
X-18533526Y56198000D01*
X-19401885Y56198000D01*
X-19417124Y56193525D01*
X-19418329Y56192135D01*
X-19420000Y56184452D01*
X-19420000Y54724115D01*
X-19928000Y54724115D01*
X-19928000Y56179885D01*
X-19932475Y56195124D01*
X-19933865Y56196329D01*
X-19941548Y56198000D01*
X-21401885Y56198000D01*
X-21417124Y56193525D01*
X-21418329Y56192135D01*
X-21420000Y56184452D01*
X-21420000Y54724115D01*
X-21928000Y54724115D01*
X-21928000Y56179885D01*
X-21932475Y56195124D01*
X-21933865Y56196329D01*
X-21941548Y56198000D01*
X-22812019Y56198000D01*
X-22825550Y56194027D01*
X-22826842Y56185038D01*
X-22795344Y56061015D01*
X-22791503Y56050168D01*
X-22705315Y55863211D01*
X-22699564Y55853250D01*
X-22580746Y55685127D01*
X-22573280Y55676385D01*
X-22433523Y55540239D01*
X-22398686Y55478377D01*
X-22402823Y55407501D01*
X-22438368Y55355253D01*
X-22531448Y55273624D01*
X-22539370Y55265276D01*
X-22666820Y55103606D01*
X-22673091Y55093950D01*
X-22768940Y54911771D01*
X-22773345Y54901137D01*
X-22828564Y54723300D01*
X-22828782Y54709201D01*
X-37291500Y54709201D01*
X-37291500Y58483113D01*
X-22862163Y58483113D01*
X-22847937Y58266067D01*
X-22846516Y58260471D01*
X-22846515Y58260466D01*
X-22795816Y58060842D01*
X-22794395Y58055247D01*
X-22703332Y57857715D01*
X-22577796Y57680086D01*
X-22433898Y57539907D01*
X-22399062Y57478048D01*
X-22403199Y57407172D01*
X-22438744Y57354923D01*
X-22531448Y57273624D01*
X-22539370Y57265276D01*
X-22666820Y57103606D01*
X-22673091Y57093950D01*
X-22768940Y56911771D01*
X-22773345Y56901137D01*
X-22828564Y56723300D01*
X-22828782Y56709201D01*
X-22822050Y56706000D01*
X-18534515Y56706000D01*
X-18520984Y56709973D01*
X-18519815Y56718108D01*
X-18563275Y56872206D01*
X-18567397Y56882945D01*
X-18658451Y57067583D01*
X-18664462Y57077392D01*
X-18787640Y57242349D01*
X-18795329Y57250889D01*
X-18913309Y57359948D01*
X-18949754Y57420877D01*
X-18947473Y57491837D01*
X-18908350Y57549347D01*
X-18833554Y57611554D01*
X-18694468Y57778787D01*
X-18588187Y57968565D01*
X-18586331Y57974032D01*
X-18586329Y57974037D01*
X-18520126Y58169065D01*
X-18520125Y58169070D01*
X-18518270Y58174534D01*
X-18487059Y58389795D01*
X-18485430Y58452000D01*
X-18505333Y58668600D01*
X-18564374Y58877945D01*
X-18660577Y59073026D01*
X-18773900Y59224785D01*
X-18787267Y59242685D01*
X-18787268Y59242686D01*
X-18790720Y59247309D01*
X-18912922Y59360271D01*
X-18949367Y59421200D01*
X-18947086Y59492160D01*
X-18907962Y59549670D01*
X-18837992Y59607863D01*
X-18833554Y59611554D01*
X-18694468Y59778787D01*
X-18588187Y59968565D01*
X-18586331Y59974032D01*
X-18586329Y59974037D01*
X-18520126Y60169065D01*
X-18520125Y60169070D01*
X-18518270Y60174534D01*
X-18487059Y60389795D01*
X-18485430Y60452000D01*
X-18505333Y60668600D01*
X-18564374Y60877945D01*
X-18660577Y61073026D01*
X-18773900Y61224785D01*
X-18787267Y61242685D01*
X-18787268Y61242686D01*
X-18790720Y61247309D01*
X-18950444Y61394956D01*
X-19134401Y61511024D01*
X-19336428Y61591624D01*
X-19549761Y61634059D01*
X-19555536Y61634135D01*
X-19555540Y61634135D01*
X-19664581Y61635562D01*
X-19767254Y61636906D01*
X-19772951Y61635927D01*
X-19772952Y61635927D01*
X-19975935Y61601048D01*
X-19975938Y61601047D01*
X-19981625Y61600070D01*
X-20185693Y61524786D01*
X-20372624Y61413573D01*
X-20536158Y61270158D01*
X-20539730Y61265628D01*
X-20539731Y61265626D01*
X-20573993Y61222166D01*
X-20631875Y61181053D01*
X-20702795Y61177761D01*
X-20764237Y61213333D01*
X-20773900Y61224785D01*
X-20787263Y61242681D01*
X-20787270Y61242688D01*
X-20790720Y61247309D01*
X-20950444Y61394956D01*
X-21134401Y61511024D01*
X-21336428Y61591624D01*
X-21549761Y61634059D01*
X-21555536Y61634135D01*
X-21555540Y61634135D01*
X-21664581Y61635562D01*
X-21767254Y61636906D01*
X-21772951Y61635927D01*
X-21772952Y61635927D01*
X-21975935Y61601048D01*
X-21975938Y61601047D01*
X-21981625Y61600070D01*
X-22185693Y61524786D01*
X-22372624Y61413573D01*
X-22536158Y61270158D01*
X-22539730Y61265627D01*
X-22580955Y61213333D01*
X-22670819Y61099342D01*
X-22772095Y60906846D01*
X-22836597Y60699118D01*
X-22862163Y60483113D01*
X-22847937Y60266067D01*
X-22846516Y60260471D01*
X-22846515Y60260466D01*
X-22795816Y60060842D01*
X-22794395Y60055247D01*
X-22703332Y59857715D01*
X-22577796Y59680086D01*
X-22573654Y59676051D01*
X-22434259Y59540259D01*
X-22399421Y59478398D01*
X-22403558Y59407522D01*
X-22439101Y59355274D01*
X-22536158Y59270158D01*
X-22539730Y59265627D01*
X-22580955Y59213333D01*
X-22670819Y59099342D01*
X-22772095Y58906846D01*
X-22836597Y58699118D01*
X-22862163Y58483113D01*
X-37291500Y58483113D01*
X-37291500Y74920835D01*
X-37291493Y74922154D01*
X-37290624Y75005179D01*
X-37290550Y75012221D01*
X-37292037Y75019099D01*
X-37292038Y75019109D01*
X-37299709Y75054587D01*
X-37301770Y75067169D01*
X-37305818Y75103257D01*
X-37306603Y75110255D01*
X-37317632Y75141926D01*
X-37321795Y75156735D01*
X-37327393Y75182629D01*
X-37327394Y75182632D01*
X-37328881Y75189510D01*
X-37347208Y75228813D01*
X-37351990Y75240589D01*
X-37366255Y75281552D01*
X-37369990Y75287530D01*
X-37384027Y75309995D01*
X-37391366Y75323512D01*
X-37402561Y75347519D01*
X-37402563Y75347523D01*
X-37405538Y75353902D01*
X-37432108Y75388156D01*
X-37439402Y75398612D01*
X-37462374Y75435376D01*
X-37490983Y75464185D01*
X-37491566Y75464808D01*
X-37492079Y75465470D01*
X-37517926Y75491317D01*
X-37590185Y75564082D01*
X-37591223Y75564741D01*
X-37592456Y75565847D01*
X-51476766Y89450158D01*
X-51477694Y89451095D01*
X-51535843Y89510475D01*
X-51535844Y89510476D01*
X-51540771Y89515507D01*
X-51577221Y89538998D01*
X-51587546Y89546417D01*
X-51621443Y89573476D01*
X-51651638Y89588073D01*
X-51665055Y89595602D01*
X-51693238Y89613765D01*
X-51699855Y89616173D01*
X-51699860Y89616176D01*
X-51733973Y89628592D01*
X-51745716Y89633553D01*
X-51778403Y89649354D01*
X-51778408Y89649356D01*
X-51784749Y89652421D01*
X-51791607Y89654004D01*
X-51791609Y89654005D01*
X-51817426Y89659965D01*
X-51832169Y89664332D01*
X-51863685Y89675803D01*
X-51870675Y89676686D01*
X-51870683Y89676688D01*
X-51906701Y89681238D01*
X-51919253Y89683474D01*
X-51954614Y89691638D01*
X-51954617Y89691638D01*
X-51961485Y89693224D01*
X-51968531Y89693249D01*
X-51968534Y89693249D01*
X-52002056Y89693366D01*
X-52002938Y89693395D01*
X-52003769Y89693500D01*
X-52040419Y89693500D01*
X-52040859Y89693501D01*
X-52139343Y89693845D01*
X-52139348Y89693845D01*
X-52142870Y89693857D01*
X-52144070Y89693589D01*
X-52145707Y89693500D01*
X-57288150Y89693500D01*
X-57356271Y89713502D01*
X-57381344Y89734701D01*
X-57512565Y89878912D01*
X-57543617Y89942758D01*
X-57535221Y90013256D01*
X-57490044Y90068024D01*
X-57463600Y90081693D01*
X-57356948Y90121675D01*
X-57341351Y90130214D01*
X-57239276Y90206715D01*
X-57226715Y90219276D01*
X-57150214Y90321351D01*
X-57141676Y90336946D01*
X-57096522Y90457394D01*
X-57092895Y90472649D01*
X-57087369Y90523514D01*
X-57087000Y90530328D01*
X-57087000Y91152885D01*
X-57091475Y91168124D01*
X-57092865Y91169329D01*
X-57100548Y91171000D01*
X-59784884Y91171000D01*
X-59800123Y91166525D01*
X-59801328Y91165135D01*
X-59802999Y91157452D01*
X-59802999Y90530331D01*
X-59802629Y90523510D01*
X-59797105Y90472648D01*
X-59793479Y90457396D01*
X-59748324Y90336946D01*
X-59739786Y90321351D01*
X-59663285Y90219276D01*
X-59650724Y90206715D01*
X-59548649Y90130214D01*
X-59533054Y90121676D01*
X-59424173Y90080858D01*
X-59367409Y90038216D01*
X-59342709Y89971655D01*
X-59357917Y89902306D01*
X-59377309Y89875825D01*
X-59500800Y89746599D01*
X-59504371Y89742862D01*
X-59507285Y89738590D01*
X-59507286Y89738589D01*
X-59562528Y89657607D01*
X-59630257Y89558320D01*
X-59660614Y89492921D01*
X-59707207Y89392544D01*
X-59724312Y89355695D01*
X-59784011Y89140430D01*
X-59807749Y88918305D01*
X-59807452Y88913152D01*
X-59807452Y88913149D01*
X-59801989Y88818410D01*
X-59794890Y88695285D01*
X-59793753Y88690239D01*
X-59793752Y88690233D01*
X-59773881Y88602061D01*
X-59745778Y88477361D01*
X-59661734Y88270384D01*
X-59545013Y88079912D01*
X-59398750Y87911062D01*
X-59226874Y87768368D01*
X-59156405Y87727189D01*
X-59153555Y87725524D01*
X-59104831Y87673886D01*
X-59091760Y87604103D01*
X-59118491Y87538331D01*
X-59158945Y87504973D01*
X-59171393Y87498493D01*
X-59175526Y87495390D01*
X-59175529Y87495388D01*
X-59199753Y87477200D01*
X-59350035Y87364365D01*
X-59504371Y87202862D01*
X-59630257Y87018320D01*
X-59724312Y86815695D01*
X-59784011Y86600430D01*
X-59807749Y86378305D01*
X-64704582Y86378305D01*
X-64720148Y86567639D01*
X-64774569Y86784298D01*
X-64863646Y86989160D01*
X-64984986Y87176723D01*
X-65135330Y87341949D01*
X-65139381Y87345148D01*
X-65139385Y87345152D01*
X-65306586Y87477200D01*
X-65306590Y87477202D01*
X-65310641Y87480402D01*
X-65351947Y87503204D01*
X-65401916Y87553636D01*
X-65416688Y87623079D01*
X-65391572Y87689484D01*
X-65364220Y87716091D01*
X-65320397Y87747350D01*
X-65185140Y87843827D01*
X-65026904Y88001511D01*
X-64967406Y88084311D01*
X-64899565Y88178723D01*
X-64896547Y88182923D01*
X-64797570Y88383189D01*
X-64732630Y88596931D01*
X-64703471Y88818410D01*
X-64701844Y88885000D01*
X-64720148Y89107639D01*
X-64774569Y89324298D01*
X-64863646Y89529160D01*
X-64943387Y89652421D01*
X-64982178Y89712383D01*
X-64982180Y89712386D01*
X-64984986Y89716723D01*
X-65135330Y89881949D01*
X-65139381Y89885148D01*
X-65139385Y89885152D01*
X-65306586Y90017200D01*
X-65306590Y90017202D01*
X-65310641Y90020402D01*
X-65352431Y90043471D01*
X-65402402Y90093903D01*
X-65417174Y90163346D01*
X-65392058Y90229752D01*
X-65364707Y90256358D01*
X-65315753Y90291277D01*
X-65307352Y90301977D01*
X-65314340Y90315130D01*
X-66052188Y91052978D01*
X-66066132Y91060592D01*
X-66067965Y91060461D01*
X-66074580Y91056210D01*
X-66818263Y90312527D01*
X-66825023Y90300147D01*
X-66819742Y90293093D01*
X-66773031Y90265797D01*
X-66724307Y90214159D01*
X-66711236Y90144376D01*
X-66737967Y90078604D01*
X-66778416Y90045248D01*
X-66791393Y90038493D01*
X-66795526Y90035390D01*
X-66795529Y90035388D01*
X-66965900Y89907470D01*
X-66970035Y89904365D01*
X-67124371Y89742862D01*
X-67126368Y89739935D01*
X-67184397Y89699852D01*
X-67223898Y89693500D01*
X-72395835Y89693500D01*
X-72397154Y89693507D01*
X-72487221Y89694450D01*
X-72494099Y89692963D01*
X-72494109Y89692962D01*
X-72529587Y89685291D01*
X-72542162Y89683231D01*
X-72585255Y89678397D01*
X-72616926Y89667368D01*
X-72631735Y89663205D01*
X-72657629Y89657607D01*
X-72657632Y89657606D01*
X-72664510Y89656119D01*
X-72703813Y89637792D01*
X-72715589Y89633010D01*
X-72756552Y89618745D01*
X-72762527Y89615011D01*
X-72762530Y89615010D01*
X-72784995Y89600973D01*
X-72798512Y89593634D01*
X-72822519Y89582439D01*
X-72822523Y89582437D01*
X-72828902Y89579462D01*
X-72856158Y89558320D01*
X-72863156Y89552892D01*
X-72873605Y89545603D01*
X-72910376Y89522626D01*
X-72915375Y89517661D01*
X-72915377Y89517660D01*
X-72939185Y89494017D01*
X-72939808Y89493434D01*
X-72940470Y89492921D01*
X-72966317Y89467074D01*
X-72983351Y89450158D01*
X-73039082Y89394815D01*
X-73039741Y89393777D01*
X-73040847Y89392544D01*
X-78239158Y84194234D01*
X-78240095Y84193306D01*
X-78304507Y84130229D01*
X-78327998Y84093779D01*
X-78335417Y84083454D01*
X-78362476Y84049557D01*
X-78365541Y84043216D01*
X-78365542Y84043215D01*
X-78377072Y84019363D01*
X-78384601Y84005946D01*
X-78402765Y83977762D01*
X-78405173Y83971145D01*
X-78405176Y83971140D01*
X-78417592Y83937027D01*
X-78422553Y83925284D01*
X-78438354Y83892597D01*
X-78438356Y83892592D01*
X-78441421Y83886251D01*
X-78443004Y83879393D01*
X-78443005Y83879391D01*
X-78448965Y83853574D01*
X-78453332Y83838831D01*
X-78464803Y83807315D01*
X-78465686Y83800325D01*
X-78465688Y83800317D01*
X-78470238Y83764299D01*
X-78472474Y83751747D01*
X-78482224Y83709515D01*
X-78482249Y83702469D01*
X-78482249Y83702466D01*
X-78482366Y83668944D01*
X-78482395Y83668062D01*
X-78482500Y83667231D01*
X-78482500Y83630428D01*
X-78482857Y83528130D01*
X-78482589Y83526930D01*
X-78482500Y83525293D01*
X-78482500Y19374305D01*
X-78502502Y19306184D01*
X-78525424Y19279572D01*
X-78531813Y19273969D01*
X-78531816Y19273966D01*
X-78536158Y19270158D01*
X-78539735Y19265620D01*
X-78573993Y19222166D01*
X-78631875Y19181053D01*
X-78702795Y19177761D01*
X-78764237Y19213333D01*
X-78773900Y19224785D01*
X-78787263Y19242681D01*
X-78787270Y19242688D01*
X-78790720Y19247309D01*
X-78794956Y19251225D01*
X-78946204Y19391037D01*
X-78946207Y19391039D01*
X-78950444Y19394956D01*
X-79134401Y19511024D01*
X-79336428Y19591624D01*
X-79549761Y19634059D01*
X-79555536Y19634135D01*
X-79555540Y19634135D01*
X-79664581Y19635562D01*
X-79767254Y19636906D01*
X-79772951Y19635927D01*
X-79772952Y19635927D01*
X-79975935Y19601048D01*
X-79975938Y19601047D01*
X-79981625Y19600070D01*
X-80185693Y19524786D01*
X-80372624Y19413573D01*
X-80536158Y19270158D01*
X-80539730Y19265627D01*
X-80606729Y19180639D01*
X-80670819Y19099342D01*
X-80772095Y18906846D01*
X-80773808Y18901329D01*
X-80833941Y18707671D01*
X-80836597Y18699118D01*
X-80862163Y18483113D01*
X-85090000Y18483113D01*
X-85090000Y91453137D01*
X-67426950Y91453137D01*
X-67414691Y91240523D01*
X-67413255Y91230303D01*
X-67366435Y91022554D01*
X-67363355Y91012725D01*
X-67283230Y90815397D01*
X-67278587Y90806206D01*
X-67198540Y90675580D01*
X-67188084Y90666120D01*
X-67179306Y90669904D01*
X-66437022Y91412188D01*
X-66430644Y91423868D01*
X-65700592Y91423868D01*
X-65700461Y91422035D01*
X-65696210Y91415420D01*
X-64954526Y90673736D01*
X-64942516Y90667177D01*
X-64930777Y90676145D01*
X-64899996Y90718981D01*
X-64894685Y90727820D01*
X-64800330Y90918733D01*
X-64796531Y90928328D01*
X-64734624Y91132085D01*
X-64732445Y91142166D01*
X-64704410Y91355113D01*
X-64703891Y91361788D01*
X-64702428Y91421636D01*
X-64702622Y91428354D01*
X-64720219Y91642396D01*
X-64721904Y91652576D01*
X-64733092Y91697115D01*
X-59803000Y91697115D01*
X-59798525Y91681876D01*
X-59797135Y91680671D01*
X-59789452Y91679000D01*
X-58717115Y91679000D01*
X-58701876Y91683475D01*
X-58700671Y91684865D01*
X-58699000Y91692548D01*
X-58699000Y91697115D01*
X-58191000Y91697115D01*
X-58186525Y91681876D01*
X-58185135Y91680671D01*
X-58177452Y91679000D01*
X-57105116Y91679000D01*
X-57089877Y91683475D01*
X-57088672Y91684865D01*
X-57087001Y91692548D01*
X-57087001Y92319669D01*
X-57087371Y92326490D01*
X-57092895Y92377352D01*
X-57096521Y92392604D01*
X-57141676Y92513054D01*
X-57150214Y92528649D01*
X-57226715Y92630724D01*
X-57239276Y92643285D01*
X-57341351Y92719786D01*
X-57356946Y92728324D01*
X-57477394Y92773478D01*
X-57492649Y92777105D01*
X-57543514Y92782631D01*
X-57550328Y92783000D01*
X-58172885Y92783000D01*
X-58188124Y92778525D01*
X-58189329Y92777135D01*
X-58191000Y92769452D01*
X-58191000Y91697115D01*
X-58699000Y91697115D01*
X-58699000Y92764884D01*
X-58703475Y92780123D01*
X-58704865Y92781328D01*
X-58712548Y92782999D01*
X-59339669Y92782999D01*
X-59346490Y92782629D01*
X-59397352Y92777105D01*
X-59412604Y92773479D01*
X-59533054Y92728324D01*
X-59548649Y92719786D01*
X-59650724Y92643285D01*
X-59663285Y92630724D01*
X-59739786Y92528649D01*
X-59748324Y92513054D01*
X-59793478Y92392606D01*
X-59797105Y92377351D01*
X-59802631Y92326486D01*
X-59803000Y92319672D01*
X-59803000Y91697115D01*
X-64733092Y91697115D01*
X-64773786Y91859125D01*
X-64777106Y91868876D01*
X-64862028Y92064186D01*
X-64866895Y92073261D01*
X-64931937Y92173803D01*
X-64942623Y92183005D01*
X-64952188Y92178602D01*
X-65692978Y91437812D01*
X-65700592Y91423868D01*
X-66430644Y91423868D01*
X-66429408Y91426132D01*
X-66429539Y91427965D01*
X-66433790Y91434580D01*
X-67175151Y92175941D01*
X-67186687Y92182241D01*
X-67198969Y92172618D01*
X-67246911Y92102338D01*
X-67251996Y92093387D01*
X-67341662Y91900217D01*
X-67345225Y91890530D01*
X-67402136Y91685319D01*
X-67404067Y91675200D01*
X-67426698Y91463426D01*
X-67426950Y91453137D01*
X-85090000Y91453137D01*
X-85090000Y92548573D01*
X-66823777Y92548573D01*
X-66817032Y92536242D01*
X-66077812Y91797022D01*
X-66063868Y91789408D01*
X-66062035Y91789539D01*
X-66055420Y91793790D01*
X-65311611Y92537599D01*
X-65304590Y92550456D01*
X-65311389Y92559787D01*
X-65315446Y92562482D01*
X-65501883Y92665401D01*
X-65511295Y92669631D01*
X-65712041Y92740720D01*
X-65722011Y92743354D01*
X-65931673Y92780699D01*
X-65941927Y92781669D01*
X-66154884Y92784272D01*
X-66165168Y92783552D01*
X-66375679Y92751339D01*
X-66385707Y92748950D01*
X-66588132Y92682788D01*
X-66597641Y92678791D01*
X-66786534Y92580460D01*
X-66795266Y92574961D01*
X-66815323Y92559901D01*
X-66823777Y92548573D01*
X-85090000Y92548573D01*
X-85090000Y96394000D01*
X-85069998Y96462121D01*
X-85016342Y96508614D01*
X-84964000Y96520000D01*
X-16636000Y96520000D01*
X-16567879Y96499998D01*
G37*
%TD.AperFunction*%
%TD*%
M02*
